<?xml version="1.0" encoding="utf-8"?>
<svg xmlns="http://www.w3.org/2000/svg" xmlns:xlink="http://www.w3.org/1999/xlink" width="600" height="400" viewBox="0 0 2400 1600">
<defs>
  <clipPath id="clip470">
    <rect x="0" y="0" width="2400" height="1600"/>
  </clipPath>
</defs>
<path clip-path="url(#clip470)" d="M0 1600 L2400 1600 L2400 0 L0 0  Z" fill="#ffffff" fill-rule="evenodd" fill-opacity="1"/>
<defs>
  <clipPath id="clip471">
    <rect x="480" y="0" width="1681" height="1600"/>
  </clipPath>
</defs>
<path clip-path="url(#clip470)" d="M249.542 1486.45 L1167.59 1486.45 L1167.59 47.2441 L249.542 47.2441  Z" fill="#ffffff" fill-rule="evenodd" fill-opacity="1"/>
<defs>
  <clipPath id="clip472">
    <rect x="249" y="47" width="919" height="1440"/>
  </clipPath>
</defs>
<polyline clip-path="url(#clip472)" style="stroke:#000000; stroke-linecap:round; stroke-linejoin:round; stroke-width:2; stroke-opacity:0.1; fill:none" points="365.97,1486.45 365.97,47.2441 "/>
<polyline clip-path="url(#clip472)" style="stroke:#000000; stroke-linecap:round; stroke-linejoin:round; stroke-width:2; stroke-opacity:0.1; fill:none" points="537.269,1486.45 537.269,47.2441 "/>
<polyline clip-path="url(#clip472)" style="stroke:#000000; stroke-linecap:round; stroke-linejoin:round; stroke-width:2; stroke-opacity:0.1; fill:none" points="708.568,1486.45 708.568,47.2441 "/>
<polyline clip-path="url(#clip472)" style="stroke:#000000; stroke-linecap:round; stroke-linejoin:round; stroke-width:2; stroke-opacity:0.1; fill:none" points="879.867,1486.45 879.867,47.2441 "/>
<polyline clip-path="url(#clip472)" style="stroke:#000000; stroke-linecap:round; stroke-linejoin:round; stroke-width:2; stroke-opacity:0.1; fill:none" points="1051.17,1486.45 1051.17,47.2441 "/>
<polyline clip-path="url(#clip470)" style="stroke:#000000; stroke-linecap:round; stroke-linejoin:round; stroke-width:4; stroke-opacity:1; fill:none" points="249.542,1486.45 1167.59,1486.45 "/>
<polyline clip-path="url(#clip470)" style="stroke:#000000; stroke-linecap:round; stroke-linejoin:round; stroke-width:4; stroke-opacity:1; fill:none" points="365.97,1486.45 365.97,1467.55 "/>
<polyline clip-path="url(#clip470)" style="stroke:#000000; stroke-linecap:round; stroke-linejoin:round; stroke-width:4; stroke-opacity:1; fill:none" points="537.269,1486.45 537.269,1467.55 "/>
<polyline clip-path="url(#clip470)" style="stroke:#000000; stroke-linecap:round; stroke-linejoin:round; stroke-width:4; stroke-opacity:1; fill:none" points="708.568,1486.45 708.568,1467.55 "/>
<polyline clip-path="url(#clip470)" style="stroke:#000000; stroke-linecap:round; stroke-linejoin:round; stroke-width:4; stroke-opacity:1; fill:none" points="879.867,1486.45 879.867,1467.55 "/>
<polyline clip-path="url(#clip470)" style="stroke:#000000; stroke-linecap:round; stroke-linejoin:round; stroke-width:4; stroke-opacity:1; fill:none" points="1051.17,1486.45 1051.17,1467.55 "/>
<path clip-path="url(#clip470)" d="M265.994 1518.13 L265.994 1531.12 L271.874 1531.12 Q275.138 1531.12 276.92 1529.43 Q278.702 1527.74 278.702 1524.61 Q278.702 1521.51 276.92 1519.82 Q275.138 1518.13 271.874 1518.13 L265.994 1518.13 M261.318 1514.29 L271.874 1514.29 Q277.684 1514.29 280.647 1516.93 Q283.633 1519.54 283.633 1524.61 Q283.633 1529.73 280.647 1532.34 Q277.684 1534.96 271.874 1534.96 L265.994 1534.96 L265.994 1548.85 L261.318 1548.85 L261.318 1514.29 Z" fill="#000000" fill-rule="nonzero" fill-opacity="1" /><path clip-path="url(#clip470)" d="M303.911 1526.9 Q303.193 1526.49 302.336 1526.3 Q301.503 1526.09 300.485 1526.09 Q296.874 1526.09 294.929 1528.45 Q293.008 1530.79 293.008 1535.19 L293.008 1548.85 L288.725 1548.85 L288.725 1522.92 L293.008 1522.92 L293.008 1526.95 Q294.35 1524.59 296.503 1523.45 Q298.656 1522.3 301.735 1522.3 Q302.174 1522.3 302.707 1522.37 Q303.239 1522.41 303.887 1522.53 L303.911 1526.9 Z" fill="#000000" fill-rule="nonzero" fill-opacity="1" /><path clip-path="url(#clip470)" d="M317.383 1525.91 Q313.957 1525.91 311.966 1528.59 Q309.975 1531.26 309.975 1535.91 Q309.975 1540.56 311.943 1543.25 Q313.934 1545.91 317.383 1545.91 Q320.785 1545.91 322.776 1543.22 Q324.767 1540.54 324.767 1535.91 Q324.767 1531.3 322.776 1528.62 Q320.785 1525.91 317.383 1525.91 M317.383 1522.3 Q322.938 1522.3 326.109 1525.91 Q329.281 1529.52 329.281 1535.91 Q329.281 1542.27 326.109 1545.91 Q322.938 1549.52 317.383 1549.52 Q311.804 1549.52 308.633 1545.91 Q305.485 1542.27 305.485 1535.91 Q305.485 1529.52 308.633 1525.91 Q311.804 1522.3 317.383 1522.3 Z" fill="#000000" fill-rule="nonzero" fill-opacity="1" /><path clip-path="url(#clip470)" d="M340.461 1544.96 L340.461 1558.71 L336.179 1558.71 L336.179 1522.92 L340.461 1522.92 L340.461 1526.86 Q341.804 1524.54 343.841 1523.43 Q345.901 1522.3 348.748 1522.3 Q353.47 1522.3 356.41 1526.05 Q359.373 1529.8 359.373 1535.91 Q359.373 1542.02 356.41 1545.77 Q353.47 1549.52 348.748 1549.52 Q345.901 1549.52 343.841 1548.41 Q341.804 1547.27 340.461 1544.96 M354.952 1535.91 Q354.952 1531.21 353.007 1528.55 Q351.086 1525.86 347.707 1525.86 Q344.327 1525.86 342.383 1528.55 Q340.461 1531.21 340.461 1535.91 Q340.461 1540.61 342.383 1543.29 Q344.327 1545.95 347.707 1545.95 Q351.086 1545.95 353.007 1543.29 Q354.952 1540.61 354.952 1535.91 Z" fill="#000000" fill-rule="nonzero" fill-opacity="1" /><path clip-path="url(#clip470)" d="M376.48 1525.91 Q373.054 1525.91 371.063 1528.59 Q369.072 1531.26 369.072 1535.91 Q369.072 1540.56 371.04 1543.25 Q373.031 1545.91 376.48 1545.91 Q379.882 1545.91 381.873 1543.22 Q383.864 1540.54 383.864 1535.91 Q383.864 1531.3 381.873 1528.62 Q379.882 1525.91 376.48 1525.91 M376.48 1522.3 Q382.035 1522.3 385.206 1525.91 Q388.378 1529.52 388.378 1535.91 Q388.378 1542.27 385.206 1545.91 Q382.035 1549.52 376.48 1549.52 Q370.901 1549.52 367.73 1545.91 Q364.581 1542.27 364.581 1535.91 Q364.581 1529.52 367.73 1525.91 Q370.901 1522.3 376.48 1522.3 Z" fill="#000000" fill-rule="nonzero" fill-opacity="1" /><path clip-path="url(#clip470)" d="M411.966 1523.69 L411.966 1527.71 Q410.16 1526.79 408.216 1526.32 Q406.271 1525.86 404.188 1525.86 Q401.016 1525.86 399.419 1526.83 Q397.845 1527.81 397.845 1529.75 Q397.845 1531.23 398.979 1532.09 Q400.114 1532.92 403.54 1533.69 L404.998 1534.01 Q409.535 1534.98 411.433 1536.76 Q413.354 1538.52 413.354 1541.7 Q413.354 1545.31 410.484 1547.41 Q407.637 1549.52 402.637 1549.52 Q400.554 1549.52 398.285 1549.1 Q396.04 1548.71 393.54 1547.9 L393.54 1543.5 Q395.901 1544.73 398.192 1545.35 Q400.484 1545.95 402.729 1545.95 Q405.739 1545.95 407.359 1544.94 Q408.979 1543.89 408.979 1542.02 Q408.979 1540.28 407.799 1539.36 Q406.641 1538.43 402.683 1537.57 L401.202 1537.23 Q397.243 1536.39 395.484 1534.68 Q393.725 1532.95 393.725 1529.94 Q393.725 1526.28 396.317 1524.29 Q398.91 1522.3 403.679 1522.3 Q406.04 1522.3 408.123 1522.64 Q410.206 1522.99 411.966 1523.69 Z" fill="#000000" fill-rule="nonzero" fill-opacity="1" /><path clip-path="url(#clip470)" d="M442.313 1534.82 L442.313 1536.9 L422.729 1536.9 Q423.007 1541.3 425.368 1543.62 Q427.752 1545.91 431.989 1545.91 Q434.442 1545.91 436.734 1545.31 Q439.049 1544.7 441.317 1543.5 L441.317 1547.53 Q439.026 1548.5 436.618 1549.01 Q434.211 1549.52 431.734 1549.52 Q425.53 1549.52 421.896 1545.91 Q418.285 1542.3 418.285 1536.14 Q418.285 1529.77 421.711 1526.05 Q425.16 1522.3 430.993 1522.3 Q436.225 1522.3 439.257 1525.68 Q442.313 1529.03 442.313 1534.82 M438.053 1533.57 Q438.007 1530.07 436.086 1527.99 Q434.188 1525.91 431.039 1525.91 Q427.475 1525.91 425.322 1527.92 Q423.192 1529.94 422.868 1533.59 L438.053 1533.57 Z" fill="#000000" fill-rule="nonzero" fill-opacity="1" /><path clip-path="url(#clip470)" d="M466.363 1526.86 L466.363 1512.83 L470.623 1512.83 L470.623 1548.85 L466.363 1548.85 L466.363 1544.96 Q465.021 1547.27 462.961 1548.41 Q460.924 1549.52 458.053 1549.52 Q453.354 1549.52 450.391 1545.77 Q447.451 1542.02 447.451 1535.91 Q447.451 1529.8 450.391 1526.05 Q453.354 1522.3 458.053 1522.3 Q460.924 1522.3 462.961 1523.43 Q465.021 1524.54 466.363 1526.86 M451.85 1535.91 Q451.85 1540.61 453.771 1543.29 Q455.715 1545.95 459.095 1545.95 Q462.474 1545.95 464.419 1543.29 Q466.363 1540.61 466.363 1535.91 Q466.363 1531.21 464.419 1528.55 Q462.474 1525.86 459.095 1525.86 Q455.715 1525.86 453.771 1528.55 Q451.85 1531.21 451.85 1535.91 Z" fill="#000000" fill-rule="nonzero" fill-opacity="1" /><path clip-path="url(#clip470)" d="M473.693 1514.29 L478.415 1514.29 L485.684 1543.5 L492.929 1514.29 L498.184 1514.29 L505.452 1543.5 L512.698 1514.29 L517.443 1514.29 L508.762 1548.85 L502.883 1548.85 L495.591 1518.85 L488.23 1548.85 L482.35 1548.85 L473.693 1514.29 Z" fill="#000000" fill-rule="nonzero" fill-opacity="1" /><path clip-path="url(#clip470)" d="M532.211 1535.82 Q527.049 1535.82 525.059 1537 Q523.068 1538.18 523.068 1541.02 Q523.068 1543.29 524.549 1544.63 Q526.054 1545.95 528.623 1545.95 Q532.165 1545.95 534.295 1543.45 Q536.447 1540.93 536.447 1536.76 L536.447 1535.82 L532.211 1535.82 M540.707 1534.06 L540.707 1548.85 L536.447 1548.85 L536.447 1544.91 Q534.989 1547.27 532.813 1548.41 Q530.637 1549.52 527.489 1549.52 Q523.508 1549.52 521.147 1547.3 Q518.809 1545.05 518.809 1541.3 Q518.809 1536.93 521.725 1534.7 Q524.665 1532.48 530.475 1532.48 L536.447 1532.48 L536.447 1532.07 Q536.447 1529.13 534.503 1527.53 Q532.582 1525.91 529.086 1525.91 Q526.864 1525.91 524.758 1526.44 Q522.651 1526.97 520.707 1528.04 L520.707 1524.1 Q523.045 1523.2 525.244 1522.76 Q527.443 1522.3 529.526 1522.3 Q535.151 1522.3 537.929 1525.21 Q540.707 1528.13 540.707 1534.06 Z" fill="#000000" fill-rule="nonzero" fill-opacity="1" /><path clip-path="url(#clip470)" d="M571.031 1533.2 L571.031 1548.85 L566.771 1548.85 L566.771 1533.34 Q566.771 1529.66 565.336 1527.83 Q563.901 1526 561.031 1526 Q557.582 1526 555.591 1528.2 Q553.6 1530.4 553.6 1534.2 L553.6 1548.85 L549.318 1548.85 L549.318 1522.92 L553.6 1522.92 L553.6 1526.95 Q555.128 1524.61 557.188 1523.45 Q559.271 1522.3 561.98 1522.3 Q566.447 1522.3 568.739 1525.07 Q571.031 1527.83 571.031 1533.2 Z" fill="#000000" fill-rule="nonzero" fill-opacity="1" /><path clip-path="url(#clip470)" d="M596.586 1535.58 Q596.586 1530.95 594.665 1528.41 Q592.767 1525.86 589.317 1525.86 Q585.892 1525.86 583.97 1528.41 Q582.072 1530.95 582.072 1535.58 Q582.072 1540.19 583.97 1542.74 Q585.892 1545.28 589.317 1545.28 Q592.767 1545.28 594.665 1542.74 Q596.586 1540.19 596.586 1535.58 M600.845 1545.63 Q600.845 1552.25 597.905 1555.47 Q594.966 1558.71 588.901 1558.71 Q586.655 1558.71 584.665 1558.36 Q582.674 1558.04 580.799 1557.34 L580.799 1553.2 Q582.674 1554.22 584.503 1554.7 Q586.331 1555.19 588.23 1555.19 Q592.419 1555.19 594.503 1552.99 Q596.586 1550.82 596.586 1546.39 L596.586 1544.29 Q595.267 1546.58 593.206 1547.71 Q591.146 1548.85 588.276 1548.85 Q583.507 1548.85 580.591 1545.21 Q577.674 1541.58 577.674 1535.58 Q577.674 1529.57 580.591 1525.93 Q583.507 1522.3 588.276 1522.3 Q591.146 1522.3 593.206 1523.43 Q595.267 1524.57 596.586 1526.86 L596.586 1522.92 L600.845 1522.92 L600.845 1545.63 Z" fill="#000000" fill-rule="nonzero" fill-opacity="1" /><path clip-path="url(#clip470)" d="M673.892 1514.29 L678.614 1514.29 L685.883 1543.5 L693.128 1514.29 L698.383 1514.29 L705.651 1543.5 L712.897 1514.29 L717.642 1514.29 L708.961 1548.85 L703.082 1548.85 L695.79 1518.85 L688.429 1548.85 L682.55 1548.85 L673.892 1514.29 Z" fill="#000000" fill-rule="nonzero" fill-opacity="1" /><path clip-path="url(#clip470)" d="M721.531 1538.62 L721.531 1522.92 L725.79 1522.92 L725.79 1538.45 Q725.79 1542.13 727.225 1543.99 Q728.66 1545.82 731.531 1545.82 Q734.98 1545.82 736.971 1543.62 Q738.984 1541.42 738.984 1537.62 L738.984 1522.92 L743.244 1522.92 L743.244 1548.85 L738.984 1548.85 L738.984 1544.87 Q737.433 1547.23 735.373 1548.38 Q733.336 1549.52 730.628 1549.52 Q726.16 1549.52 723.846 1546.74 Q721.531 1543.96 721.531 1538.62 M732.248 1522.3 L732.248 1522.3 Z" fill="#000000" fill-rule="nonzero" fill-opacity="1" /><path clip-path="url(#clip470)" d="M856.985 1514.29 L876.846 1514.29 L876.846 1518.22 L861.661 1518.22 L861.661 1528.41 L875.364 1528.41 L875.364 1532.34 L861.661 1532.34 L861.661 1548.85 L856.985 1548.85 L856.985 1514.29 Z" fill="#000000" fill-rule="nonzero" fill-opacity="1" /><path clip-path="url(#clip470)" d="M881.036 1538.62 L881.036 1522.92 L885.295 1522.92 L885.295 1538.45 Q885.295 1542.13 886.73 1543.99 Q888.165 1545.82 891.036 1545.82 Q894.485 1545.82 896.475 1543.62 Q898.489 1541.42 898.489 1537.62 L898.489 1522.92 L902.748 1522.92 L902.748 1548.85 L898.489 1548.85 L898.489 1544.87 Q896.938 1547.23 894.878 1548.38 Q892.841 1549.52 890.133 1549.52 Q885.665 1549.52 883.35 1546.74 Q881.036 1543.96 881.036 1538.62 M891.753 1522.3 L891.753 1522.3 Z" fill="#000000" fill-rule="nonzero" fill-opacity="1" /><path clip-path="url(#clip470)" d="M1043.67 1543.92 L1043.67 1534.63 L1036.03 1534.63 L1036.03 1530.79 L1048.3 1530.79 L1048.3 1545.63 Q1045.59 1547.55 1042.32 1548.55 Q1039.06 1549.52 1035.36 1549.52 Q1027.25 1549.52 1022.67 1544.8 Q1018.11 1540.05 1018.11 1531.6 Q1018.11 1523.13 1022.67 1518.41 Q1027.25 1513.66 1035.36 1513.66 Q1038.73 1513.66 1041.77 1514.5 Q1044.82 1515.33 1047.39 1516.95 L1047.39 1521.93 Q1044.8 1519.73 1041.88 1518.62 Q1038.97 1517.51 1035.75 1517.51 Q1029.41 1517.51 1026.21 1521.05 Q1023.04 1524.59 1023.04 1531.6 Q1023.04 1538.59 1026.21 1542.13 Q1029.41 1545.68 1035.75 1545.68 Q1038.23 1545.68 1040.17 1545.26 Q1042.11 1544.82 1043.67 1543.92 Z" fill="#000000" fill-rule="nonzero" fill-opacity="1" /><path clip-path="url(#clip470)" d="M1068.39 1518.89 L1062.05 1536.09 L1074.75 1536.09 L1068.39 1518.89 M1065.75 1514.29 L1071.05 1514.29 L1084.22 1548.85 L1079.36 1548.85 L1076.21 1539.98 L1060.63 1539.98 L1057.48 1548.85 L1052.55 1548.85 L1065.75 1514.29 Z" fill="#000000" fill-rule="nonzero" fill-opacity="1" /><polyline clip-path="url(#clip472)" style="stroke:#000000; stroke-linecap:round; stroke-linejoin:round; stroke-width:2; stroke-opacity:0.1; fill:none" points="249.542,1445.72 1167.59,1445.72 "/>
<polyline clip-path="url(#clip472)" style="stroke:#000000; stroke-linecap:round; stroke-linejoin:round; stroke-width:2; stroke-opacity:0.1; fill:none" points="249.542,1202.44 1167.59,1202.44 "/>
<polyline clip-path="url(#clip472)" style="stroke:#000000; stroke-linecap:round; stroke-linejoin:round; stroke-width:2; stroke-opacity:0.1; fill:none" points="249.542,959.157 1167.59,959.157 "/>
<polyline clip-path="url(#clip472)" style="stroke:#000000; stroke-linecap:round; stroke-linejoin:round; stroke-width:2; stroke-opacity:0.1; fill:none" points="249.542,715.878 1167.59,715.878 "/>
<polyline clip-path="url(#clip472)" style="stroke:#000000; stroke-linecap:round; stroke-linejoin:round; stroke-width:2; stroke-opacity:0.1; fill:none" points="249.542,472.599 1167.59,472.599 "/>
<polyline clip-path="url(#clip472)" style="stroke:#000000; stroke-linecap:round; stroke-linejoin:round; stroke-width:2; stroke-opacity:0.1; fill:none" points="249.542,229.32 1167.59,229.32 "/>
<polyline clip-path="url(#clip470)" style="stroke:#000000; stroke-linecap:round; stroke-linejoin:round; stroke-width:4; stroke-opacity:1; fill:none" points="249.542,1486.45 249.542,47.2441 "/>
<polyline clip-path="url(#clip470)" style="stroke:#000000; stroke-linecap:round; stroke-linejoin:round; stroke-width:4; stroke-opacity:1; fill:none" points="249.542,1445.72 268.44,1445.72 "/>
<polyline clip-path="url(#clip470)" style="stroke:#000000; stroke-linecap:round; stroke-linejoin:round; stroke-width:4; stroke-opacity:1; fill:none" points="249.542,1202.44 268.44,1202.44 "/>
<polyline clip-path="url(#clip470)" style="stroke:#000000; stroke-linecap:round; stroke-linejoin:round; stroke-width:4; stroke-opacity:1; fill:none" points="249.542,959.157 268.44,959.157 "/>
<polyline clip-path="url(#clip470)" style="stroke:#000000; stroke-linecap:round; stroke-linejoin:round; stroke-width:4; stroke-opacity:1; fill:none" points="249.542,715.878 268.44,715.878 "/>
<polyline clip-path="url(#clip470)" style="stroke:#000000; stroke-linecap:round; stroke-linejoin:round; stroke-width:4; stroke-opacity:1; fill:none" points="249.542,472.599 268.44,472.599 "/>
<polyline clip-path="url(#clip470)" style="stroke:#000000; stroke-linecap:round; stroke-linejoin:round; stroke-width:4; stroke-opacity:1; fill:none" points="249.542,229.32 268.44,229.32 "/>
<path clip-path="url(#clip470)" d="M126.205 1431.51 Q122.593 1431.51 120.765 1435.08 Q118.959 1438.62 118.959 1445.75 Q118.959 1452.86 120.765 1456.42 Q122.593 1459.96 126.205 1459.96 Q129.839 1459.96 131.644 1456.42 Q133.473 1452.86 133.473 1445.75 Q133.473 1438.62 131.644 1435.08 Q129.839 1431.51 126.205 1431.51 M126.205 1427.81 Q132.015 1427.81 135.07 1432.42 Q138.149 1437 138.149 1445.75 Q138.149 1454.48 135.07 1459.08 Q132.015 1463.67 126.205 1463.67 Q120.394 1463.67 117.316 1459.08 Q114.26 1454.48 114.26 1445.75 Q114.26 1437 117.316 1432.42 Q120.394 1427.81 126.205 1427.81 Z" fill="#000000" fill-rule="nonzero" fill-opacity="1" /><path clip-path="url(#clip470)" d="M146.366 1457.12 L151.251 1457.12 L151.251 1463 L146.366 1463 L146.366 1457.12 Z" fill="#000000" fill-rule="nonzero" fill-opacity="1" /><path clip-path="url(#clip470)" d="M171.436 1431.51 Q167.825 1431.51 165.996 1435.08 Q164.19 1438.62 164.19 1445.75 Q164.19 1452.86 165.996 1456.42 Q167.825 1459.96 171.436 1459.96 Q175.07 1459.96 176.876 1456.42 Q178.704 1452.86 178.704 1445.75 Q178.704 1438.62 176.876 1435.08 Q175.07 1431.51 171.436 1431.51 M171.436 1427.81 Q177.246 1427.81 180.301 1432.42 Q183.38 1437 183.38 1445.75 Q183.38 1454.48 180.301 1459.08 Q177.246 1463.67 171.436 1463.67 Q165.626 1463.67 162.547 1459.08 Q159.491 1454.48 159.491 1445.75 Q159.491 1437 162.547 1432.42 Q165.626 1427.81 171.436 1427.81 Z" fill="#000000" fill-rule="nonzero" fill-opacity="1" /><path clip-path="url(#clip470)" d="M201.598 1431.51 Q197.987 1431.51 196.158 1435.08 Q194.352 1438.62 194.352 1445.75 Q194.352 1452.86 196.158 1456.42 Q197.987 1459.96 201.598 1459.96 Q205.232 1459.96 207.037 1456.42 Q208.866 1452.86 208.866 1445.75 Q208.866 1438.62 207.037 1435.08 Q205.232 1431.51 201.598 1431.51 M201.598 1427.81 Q207.408 1427.81 210.463 1432.42 Q213.542 1437 213.542 1445.75 Q213.542 1454.48 210.463 1459.08 Q207.408 1463.67 201.598 1463.67 Q195.787 1463.67 192.709 1459.08 Q189.653 1454.48 189.653 1445.75 Q189.653 1437 192.709 1432.42 Q195.787 1427.81 201.598 1427.81 Z" fill="#000000" fill-rule="nonzero" fill-opacity="1" /><path clip-path="url(#clip470)" d="M127.2 1188.24 Q123.589 1188.24 121.76 1191.8 Q119.955 1195.34 119.955 1202.47 Q119.955 1209.58 121.76 1213.14 Q123.589 1216.68 127.2 1216.68 Q130.834 1216.68 132.64 1213.14 Q134.468 1209.58 134.468 1202.47 Q134.468 1195.34 132.64 1191.8 Q130.834 1188.24 127.2 1188.24 M127.2 1184.53 Q133.01 1184.53 136.066 1189.14 Q139.144 1193.72 139.144 1202.47 Q139.144 1211.2 136.066 1215.8 Q133.01 1220.39 127.2 1220.39 Q121.39 1220.39 118.311 1215.8 Q115.256 1211.2 115.256 1202.47 Q115.256 1193.72 118.311 1189.14 Q121.39 1184.53 127.2 1184.53 Z" fill="#000000" fill-rule="nonzero" fill-opacity="1" /><path clip-path="url(#clip470)" d="M147.362 1213.84 L152.246 1213.84 L152.246 1219.72 L147.362 1219.72 L147.362 1213.84 Z" fill="#000000" fill-rule="nonzero" fill-opacity="1" /><path clip-path="url(#clip470)" d="M166.459 1215.78 L182.778 1215.78 L182.778 1219.72 L160.834 1219.72 L160.834 1215.78 Q163.496 1213.03 168.079 1208.4 Q172.686 1203.74 173.866 1202.4 Q176.112 1199.88 176.991 1198.14 Q177.894 1196.38 177.894 1194.69 Q177.894 1191.94 175.95 1190.2 Q174.028 1188.47 170.927 1188.47 Q168.727 1188.47 166.274 1189.23 Q163.843 1189.99 161.065 1191.55 L161.065 1186.82 Q163.89 1185.69 166.343 1185.11 Q168.797 1184.53 170.834 1184.53 Q176.204 1184.53 179.399 1187.22 Q182.593 1189.9 182.593 1194.39 Q182.593 1196.52 181.783 1198.44 Q180.996 1200.34 178.889 1202.93 Q178.311 1203.61 175.209 1206.82 Q172.107 1210.02 166.459 1215.78 Z" fill="#000000" fill-rule="nonzero" fill-opacity="1" /><path clip-path="url(#clip470)" d="M192.639 1185.16 L210.996 1185.16 L210.996 1189.09 L196.922 1189.09 L196.922 1197.56 Q197.94 1197.22 198.959 1197.05 Q199.977 1196.87 200.996 1196.87 Q206.783 1196.87 210.162 1200.04 Q213.542 1203.21 213.542 1208.63 Q213.542 1214.21 210.07 1217.31 Q206.598 1220.39 200.278 1220.39 Q198.102 1220.39 195.834 1220.02 Q193.588 1219.65 191.181 1218.91 L191.181 1214.21 Q193.264 1215.34 195.487 1215.9 Q197.709 1216.45 200.186 1216.45 Q204.19 1216.45 206.528 1214.35 Q208.866 1212.24 208.866 1208.63 Q208.866 1205.02 206.528 1202.91 Q204.19 1200.8 200.186 1200.8 Q198.311 1200.8 196.436 1201.22 Q194.584 1201.64 192.639 1202.52 L192.639 1185.16 Z" fill="#000000" fill-rule="nonzero" fill-opacity="1" /><path clip-path="url(#clip470)" d="M126.205 944.956 Q122.593 944.956 120.765 948.521 Q118.959 952.063 118.959 959.192 Q118.959 966.299 120.765 969.863 Q122.593 973.405 126.205 973.405 Q129.839 973.405 131.644 969.863 Q133.473 966.299 133.473 959.192 Q133.473 952.063 131.644 948.521 Q129.839 944.956 126.205 944.956 M126.205 941.252 Q132.015 941.252 135.07 945.859 Q138.149 950.442 138.149 959.192 Q138.149 967.919 135.07 972.525 Q132.015 977.109 126.205 977.109 Q120.394 977.109 117.316 972.525 Q114.26 967.919 114.26 959.192 Q114.26 950.442 117.316 945.859 Q120.394 941.252 126.205 941.252 Z" fill="#000000" fill-rule="nonzero" fill-opacity="1" /><path clip-path="url(#clip470)" d="M146.366 970.558 L151.251 970.558 L151.251 976.437 L146.366 976.437 L146.366 970.558 Z" fill="#000000" fill-rule="nonzero" fill-opacity="1" /><path clip-path="url(#clip470)" d="M161.482 941.877 L179.839 941.877 L179.839 945.813 L165.765 945.813 L165.765 954.285 Q166.783 953.938 167.802 953.776 Q168.82 953.59 169.839 953.59 Q175.626 953.59 179.005 956.762 Q182.385 959.933 182.385 965.35 Q182.385 970.928 178.913 974.03 Q175.44 977.109 169.121 977.109 Q166.945 977.109 164.677 976.738 Q162.431 976.368 160.024 975.627 L160.024 970.928 Q162.107 972.063 164.329 972.618 Q166.552 973.174 169.028 973.174 Q173.033 973.174 175.371 971.067 Q177.709 968.961 177.709 965.35 Q177.709 961.738 175.371 959.632 Q173.033 957.526 169.028 957.526 Q167.153 957.526 165.278 957.942 Q163.427 958.359 161.482 959.239 L161.482 941.877 Z" fill="#000000" fill-rule="nonzero" fill-opacity="1" /><path clip-path="url(#clip470)" d="M201.598 944.956 Q197.987 944.956 196.158 948.521 Q194.352 952.063 194.352 959.192 Q194.352 966.299 196.158 969.863 Q197.987 973.405 201.598 973.405 Q205.232 973.405 207.037 969.863 Q208.866 966.299 208.866 959.192 Q208.866 952.063 207.037 948.521 Q205.232 944.956 201.598 944.956 M201.598 941.252 Q207.408 941.252 210.463 945.859 Q213.542 950.442 213.542 959.192 Q213.542 967.919 210.463 972.525 Q207.408 977.109 201.598 977.109 Q195.787 977.109 192.709 972.525 Q189.653 967.919 189.653 959.192 Q189.653 950.442 192.709 945.859 Q195.787 941.252 201.598 941.252 Z" fill="#000000" fill-rule="nonzero" fill-opacity="1" /><path clip-path="url(#clip470)" d="M127.2 701.677 Q123.589 701.677 121.76 705.242 Q119.955 708.784 119.955 715.913 Q119.955 723.02 121.76 726.584 Q123.589 730.126 127.2 730.126 Q130.834 730.126 132.64 726.584 Q134.468 723.02 134.468 715.913 Q134.468 708.784 132.64 705.242 Q130.834 701.677 127.2 701.677 M127.2 697.973 Q133.01 697.973 136.066 702.58 Q139.144 707.163 139.144 715.913 Q139.144 724.64 136.066 729.246 Q133.01 733.83 127.2 733.83 Q121.39 733.83 118.311 729.246 Q115.256 724.64 115.256 715.913 Q115.256 707.163 118.311 702.58 Q121.39 697.973 127.2 697.973 Z" fill="#000000" fill-rule="nonzero" fill-opacity="1" /><path clip-path="url(#clip470)" d="M147.362 727.279 L152.246 727.279 L152.246 733.158 L147.362 733.158 L147.362 727.279 Z" fill="#000000" fill-rule="nonzero" fill-opacity="1" /><path clip-path="url(#clip470)" d="M161.251 698.598 L183.473 698.598 L183.473 700.589 L170.927 733.158 L166.042 733.158 L177.848 702.534 L161.251 702.534 L161.251 698.598 Z" fill="#000000" fill-rule="nonzero" fill-opacity="1" /><path clip-path="url(#clip470)" d="M192.639 698.598 L210.996 698.598 L210.996 702.534 L196.922 702.534 L196.922 711.006 Q197.94 710.659 198.959 710.496 Q199.977 710.311 200.996 710.311 Q206.783 710.311 210.162 713.483 Q213.542 716.654 213.542 722.07 Q213.542 727.649 210.07 730.751 Q206.598 733.83 200.278 733.83 Q198.102 733.83 195.834 733.459 Q193.588 733.089 191.181 732.348 L191.181 727.649 Q193.264 728.783 195.487 729.339 Q197.709 729.895 200.186 729.895 Q204.19 729.895 206.528 727.788 Q208.866 725.682 208.866 722.07 Q208.866 718.459 206.528 716.353 Q204.19 714.246 200.186 714.246 Q198.311 714.246 196.436 714.663 Q194.584 715.08 192.639 715.959 L192.639 698.598 Z" fill="#000000" fill-rule="nonzero" fill-opacity="1" /><path clip-path="url(#clip470)" d="M117.015 485.944 L124.654 485.944 L124.654 459.579 L116.343 461.245 L116.343 456.986 L124.607 455.319 L129.283 455.319 L129.283 485.944 L136.922 485.944 L136.922 489.879 L117.015 489.879 L117.015 485.944 Z" fill="#000000" fill-rule="nonzero" fill-opacity="1" /><path clip-path="url(#clip470)" d="M146.366 484 L151.251 484 L151.251 489.879 L146.366 489.879 L146.366 484 Z" fill="#000000" fill-rule="nonzero" fill-opacity="1" /><path clip-path="url(#clip470)" d="M171.436 458.398 Q167.825 458.398 165.996 461.963 Q164.19 465.504 164.19 472.634 Q164.19 479.74 165.996 483.305 Q167.825 486.847 171.436 486.847 Q175.07 486.847 176.876 483.305 Q178.704 479.74 178.704 472.634 Q178.704 465.504 176.876 461.963 Q175.07 458.398 171.436 458.398 M171.436 454.694 Q177.246 454.694 180.301 459.301 Q183.38 463.884 183.38 472.634 Q183.38 481.361 180.301 485.967 Q177.246 490.551 171.436 490.551 Q165.626 490.551 162.547 485.967 Q159.491 481.361 159.491 472.634 Q159.491 463.884 162.547 459.301 Q165.626 454.694 171.436 454.694 Z" fill="#000000" fill-rule="nonzero" fill-opacity="1" /><path clip-path="url(#clip470)" d="M201.598 458.398 Q197.987 458.398 196.158 461.963 Q194.352 465.504 194.352 472.634 Q194.352 479.74 196.158 483.305 Q197.987 486.847 201.598 486.847 Q205.232 486.847 207.037 483.305 Q208.866 479.74 208.866 472.634 Q208.866 465.504 207.037 461.963 Q205.232 458.398 201.598 458.398 M201.598 454.694 Q207.408 454.694 210.463 459.301 Q213.542 463.884 213.542 472.634 Q213.542 481.361 210.463 485.967 Q207.408 490.551 201.598 490.551 Q195.787 490.551 192.709 485.967 Q189.653 481.361 189.653 472.634 Q189.653 463.884 192.709 459.301 Q195.787 454.694 201.598 454.694 Z" fill="#000000" fill-rule="nonzero" fill-opacity="1" /><path clip-path="url(#clip470)" d="M118.01 242.665 L125.649 242.665 L125.649 216.299 L117.339 217.966 L117.339 213.707 L125.603 212.04 L130.279 212.04 L130.279 242.665 L137.917 242.665 L137.917 246.6 L118.01 246.6 L118.01 242.665 Z" fill="#000000" fill-rule="nonzero" fill-opacity="1" /><path clip-path="url(#clip470)" d="M147.362 240.721 L152.246 240.721 L152.246 246.6 L147.362 246.6 L147.362 240.721 Z" fill="#000000" fill-rule="nonzero" fill-opacity="1" /><path clip-path="url(#clip470)" d="M166.459 242.665 L182.778 242.665 L182.778 246.6 L160.834 246.6 L160.834 242.665 Q163.496 239.91 168.079 235.281 Q172.686 230.628 173.866 229.285 Q176.112 226.762 176.991 225.026 Q177.894 223.267 177.894 221.577 Q177.894 218.823 175.95 217.086 Q174.028 215.35 170.927 215.35 Q168.727 215.35 166.274 216.114 Q163.843 216.878 161.065 218.429 L161.065 213.707 Q163.89 212.573 166.343 211.994 Q168.797 211.415 170.834 211.415 Q176.204 211.415 179.399 214.1 Q182.593 216.786 182.593 221.276 Q182.593 223.406 181.783 225.327 Q180.996 227.225 178.889 229.818 Q178.311 230.489 175.209 233.707 Q172.107 236.901 166.459 242.665 Z" fill="#000000" fill-rule="nonzero" fill-opacity="1" /><path clip-path="url(#clip470)" d="M192.639 212.04 L210.996 212.04 L210.996 215.975 L196.922 215.975 L196.922 224.448 Q197.94 224.1 198.959 223.938 Q199.977 223.753 200.996 223.753 Q206.783 223.753 210.162 226.924 Q213.542 230.096 213.542 235.512 Q213.542 241.091 210.07 244.193 Q206.598 247.271 200.278 247.271 Q198.102 247.271 195.834 246.901 Q193.588 246.531 191.181 245.79 L191.181 241.091 Q193.264 242.225 195.487 242.781 Q197.709 243.336 200.186 243.336 Q204.19 243.336 206.528 241.23 Q208.866 239.123 208.866 235.512 Q208.866 231.901 206.528 229.795 Q204.19 227.688 200.186 227.688 Q198.311 227.688 196.436 228.105 Q194.584 228.522 192.639 229.401 L192.639 212.04 Z" fill="#000000" fill-rule="nonzero" fill-opacity="1" /><path clip-path="url(#clip470)" d="M33.8307 1044.12 Q33.2578 1045.11 33.0032 1046.28 Q32.7167 1047.43 32.7167 1048.83 Q32.7167 1053.8 35.9632 1056.47 Q39.1779 1059.11 45.2253 1059.11 L64.0042 1059.11 L64.0042 1065 L28.3562 1065 L28.3562 1059.11 L33.8944 1059.11 Q30.6479 1057.27 29.0883 1054.31 Q27.4968 1051.35 27.4968 1047.11 Q27.4968 1046.51 27.5923 1045.78 Q27.656 1045.04 27.8151 1044.15 L33.8307 1044.12 Z" fill="#000000" fill-rule="nonzero" fill-opacity="1" /><path clip-path="url(#clip470)" d="M32.4621 1025.6 Q32.4621 1030.31 36.1542 1033.04 Q39.8145 1035.78 46.212 1035.78 Q52.6095 1035.78 56.3017 1033.08 Q59.9619 1030.34 59.9619 1025.6 Q59.9619 1020.92 56.2698 1018.18 Q52.5777 1015.44 46.212 1015.44 Q39.8781 1015.44 36.186 1018.18 Q32.4621 1020.92 32.4621 1025.6 M27.4968 1025.6 Q27.4968 1017.96 32.4621 1013.6 Q37.4273 1009.24 46.212 1009.24 Q54.9649 1009.24 59.9619 1013.6 Q64.9272 1017.96 64.9272 1025.6 Q64.9272 1033.27 59.9619 1037.63 Q54.9649 1041.96 46.212 1041.96 Q37.4273 1041.96 32.4621 1037.63 Q27.4968 1033.27 27.4968 1025.6 Z" fill="#000000" fill-rule="nonzero" fill-opacity="1" /><path clip-path="url(#clip470)" d="M18.2347 993.736 L28.3562 993.736 L28.3562 981.673 L32.9077 981.673 L32.9077 993.736 L52.2594 993.736 Q56.6199 993.736 57.8613 992.558 Q59.1026 991.349 59.1026 987.688 L59.1026 981.673 L64.0042 981.673 L64.0042 987.688 Q64.0042 994.468 61.4897 997.046 Q58.9434 999.624 52.2594 999.624 L32.9077 999.624 L32.9077 1003.92 L28.3562 1003.92 L28.3562 999.624 L18.2347 999.624 L18.2347 993.736 Z" fill="#000000" fill-rule="nonzero" fill-opacity="1" /><path clip-path="url(#clip470)" d="M44.7161 922.758 L47.5806 922.758 L47.5806 949.685 Q53.6281 949.303 56.8109 946.057 Q59.9619 942.778 59.9619 936.954 Q59.9619 933.58 59.1344 930.429 Q58.3069 927.246 56.6518 924.127 L62.1899 924.127 Q63.5267 927.278 64.227 930.588 Q64.9272 933.898 64.9272 937.304 Q64.9272 945.834 59.9619 950.831 Q54.9967 955.796 46.5303 955.796 Q37.7774 955.796 32.6531 951.085 Q27.4968 946.343 27.4968 938.322 Q27.4968 931.129 32.1438 926.959 Q36.7589 922.758 44.7161 922.758 M42.9973 928.615 Q38.1912 928.678 35.3266 931.32 Q32.4621 933.93 32.4621 938.259 Q32.4621 943.16 35.2312 946.12 Q38.0002 949.048 43.0292 949.494 L42.9973 928.615 Z" fill="#000000" fill-rule="nonzero" fill-opacity="1" /><path clip-path="url(#clip470)" d="M33.8307 892.489 Q33.2578 893.476 33.0032 894.653 Q32.7167 895.799 32.7167 897.2 Q32.7167 902.165 35.9632 904.839 Q39.1779 907.48 45.2253 907.48 L64.0042 907.48 L64.0042 913.369 L28.3562 913.369 L28.3562 907.48 L33.8944 907.48 Q30.6479 905.634 29.0883 902.674 Q27.4968 899.714 27.4968 895.481 Q27.4968 894.876 27.5923 894.144 Q27.656 893.412 27.8151 892.521 L33.8307 892.489 Z" fill="#000000" fill-rule="nonzero" fill-opacity="1" /><path clip-path="url(#clip470)" d="M33.8307 866.835 Q33.2578 867.822 33.0032 869 Q32.7167 870.145 32.7167 871.546 Q32.7167 876.511 35.9632 879.185 Q39.1779 881.827 45.2253 881.827 L64.0042 881.827 L64.0042 887.715 L28.3562 887.715 L28.3562 881.827 L33.8944 881.827 Q30.6479 879.981 29.0883 877.02 Q27.4968 874.06 27.4968 869.827 Q27.4968 869.222 27.5923 868.49 Q27.656 867.758 27.8151 866.867 L33.8307 866.835 Z" fill="#000000" fill-rule="nonzero" fill-opacity="1" /><path clip-path="url(#clip470)" d="M32.4621 848.311 Q32.4621 853.022 36.1542 855.759 Q39.8145 858.496 46.212 858.496 Q52.6095 858.496 56.3017 855.791 Q59.9619 853.054 59.9619 848.311 Q59.9619 843.632 56.2698 840.895 Q52.5777 838.158 46.212 838.158 Q39.8781 838.158 36.186 840.895 Q32.4621 843.632 32.4621 848.311 M27.4968 848.311 Q27.4968 840.672 32.4621 836.312 Q37.4273 831.951 46.212 831.951 Q54.9649 831.951 59.9619 836.312 Q64.9272 840.672 64.9272 848.311 Q64.9272 855.982 59.9619 860.342 Q54.9649 864.671 46.212 864.671 Q37.4273 864.671 32.4621 860.342 Q27.4968 855.982 27.4968 848.311 Z" fill="#000000" fill-rule="nonzero" fill-opacity="1" /><path clip-path="url(#clip470)" d="M33.8307 801.587 Q33.2578 802.574 33.0032 803.751 Q32.7167 804.897 32.7167 806.297 Q32.7167 811.263 35.9632 813.936 Q39.1779 816.578 45.2253 816.578 L64.0042 816.578 L64.0042 822.466 L28.3562 822.466 L28.3562 816.578 L33.8944 816.578 Q30.6479 814.732 29.0883 811.772 Q27.4968 808.812 27.4968 804.579 Q27.4968 803.974 27.5923 803.242 Q27.656 802.51 27.8151 801.619 L33.8307 801.587 Z" fill="#000000" fill-rule="nonzero" fill-opacity="1" /><path clip-path="url(#clip470)" d="M16.4842 764.316 L16.4842 758.905 L70.0516 775.456 L70.0516 780.866 L16.4842 764.316 Z" fill="#000000" fill-rule="nonzero" fill-opacity="1" /><path clip-path="url(#clip470)" d="M58.5933 730.1 L58.5933 719.597 L22.3406 719.597 L24.6323 731.023 L18.7758 731.023 L16.4842 719.66 L16.4842 713.231 L58.5933 713.231 L58.5933 702.727 L64.0042 702.727 L64.0042 730.1 L58.5933 730.1 Z" fill="#000000" fill-rule="nonzero" fill-opacity="1" /><path clip-path="url(#clip470)" d="M44.7161 660.077 L47.5806 660.077 L47.5806 687.004 Q53.6281 686.622 56.8109 683.376 Q59.9619 680.097 59.9619 674.273 Q59.9619 670.899 59.1344 667.748 Q58.3069 664.565 56.6518 661.446 L62.1899 661.446 Q63.5267 664.597 64.227 667.907 Q64.9272 671.217 64.9272 674.623 Q64.9272 683.153 59.9619 688.15 Q54.9967 693.115 46.5303 693.115 Q37.7774 693.115 32.6531 688.405 Q27.4968 683.662 27.4968 675.641 Q27.4968 668.448 32.1438 664.279 Q36.7589 660.077 44.7161 660.077 M42.9973 665.934 Q38.1912 665.997 35.3266 668.639 Q32.4621 671.249 32.4621 675.578 Q32.4621 680.479 35.2312 683.439 Q38.0002 686.368 43.0292 686.813 L42.9973 665.934 Z" fill="#000000" fill-rule="nonzero" fill-opacity="1" /><path clip-path="url(#clip470)" d="M43.5384 653.425 L43.5384 636.269 L48.7583 636.269 L48.7583 653.425 L43.5384 653.425 Z" fill="#000000" fill-rule="nonzero" fill-opacity="1" /><path clip-path="url(#clip470)" d="M38.3822 606.637 Q39.3689 602.022 42.4881 599.444 Q45.6073 596.834 50.1906 596.834 Q57.2247 596.834 61.0759 601.672 Q64.9272 606.51 64.9272 615.422 Q64.9272 618.414 64.3224 621.596 Q63.7495 624.747 62.5719 628.121 L56.3653 628.121 Q57.9249 625.448 58.7206 622.265 Q59.5163 619.082 59.5163 615.613 Q59.5163 609.565 57.1292 606.414 Q54.7421 603.231 50.1906 603.231 Q45.9892 603.231 43.6339 606.191 Q41.2468 609.12 41.2468 614.371 L41.2468 619.91 L35.9632 619.91 L35.9632 614.117 Q35.9632 609.374 34.0853 606.86 Q32.1756 604.345 28.6108 604.345 Q24.9505 604.345 23.009 606.955 Q21.0356 609.533 21.0356 614.371 Q21.0356 617.013 21.6086 620.037 Q22.1815 623.061 23.3909 626.689 L17.6618 626.689 Q16.6433 623.029 16.134 619.846 Q15.6248 616.631 15.6248 613.798 Q15.6248 606.478 18.9668 602.213 Q22.277 597.948 27.9424 597.948 Q31.8892 597.948 34.6264 600.208 Q37.3318 602.468 38.3822 606.637 Z" fill="#000000" fill-rule="nonzero" fill-opacity="1" /><path clip-path="url(#clip470)" d="M33.8307 544.094 Q33.2578 545.081 33.0032 546.258 Q32.7167 547.404 32.7167 548.805 Q32.7167 553.77 35.9632 556.443 Q39.1779 559.085 45.2253 559.085 L64.0042 559.085 L64.0042 564.974 L28.3562 564.974 L28.3562 559.085 L33.8944 559.085 Q30.6479 557.239 29.0883 554.279 Q27.4968 551.319 27.4968 547.086 Q27.4968 546.481 27.5923 545.749 Q27.656 545.017 27.8151 544.126 L33.8307 544.094 Z" fill="#000000" fill-rule="nonzero" fill-opacity="1" /><path clip-path="url(#clip470)" d="M46.0847 521.75 Q46.0847 528.848 47.7079 531.585 Q49.3312 534.323 53.2461 534.323 Q56.3653 534.323 58.2114 532.286 Q60.0256 530.217 60.0256 526.684 Q60.0256 521.814 56.5881 518.886 Q53.1188 515.926 47.3897 515.926 L46.0847 515.926 L46.0847 521.75 M43.6657 510.069 L64.0042 510.069 L64.0042 515.926 L58.5933 515.926 Q61.8398 517.931 63.3994 520.923 Q64.9272 523.915 64.9272 528.243 Q64.9272 533.718 61.8716 536.964 Q58.7843 540.179 53.6281 540.179 Q47.6125 540.179 44.5569 536.169 Q41.5014 532.126 41.5014 524.138 L41.5014 515.926 L40.9285 515.926 Q36.8862 515.926 34.6901 518.599 Q32.4621 521.241 32.4621 526.047 Q32.4621 529.103 33.1941 531.999 Q33.9262 534.896 35.3903 537.569 L29.9795 537.569 Q28.7381 534.354 28.1334 531.331 Q27.4968 528.307 27.4968 525.442 Q27.4968 517.708 31.5072 513.889 Q35.5176 510.069 43.6657 510.069 Z" fill="#000000" fill-rule="nonzero" fill-opacity="1" /><path clip-path="url(#clip470)" d="M33.7671 474.549 L14.479 474.549 L14.479 468.692 L64.0042 468.692 L64.0042 474.549 L58.657 474.549 Q61.8398 476.395 63.3994 479.227 Q64.9272 482.028 64.9272 485.975 Q64.9272 492.436 59.771 496.51 Q54.6147 500.553 46.212 500.553 Q37.8093 500.553 32.6531 496.51 Q27.4968 492.436 27.4968 485.975 Q27.4968 482.028 29.0564 479.227 Q30.5842 476.395 33.7671 474.549 M46.212 494.505 Q52.6732 494.505 56.3653 491.863 Q60.0256 489.19 60.0256 484.543 Q60.0256 479.896 56.3653 477.222 Q52.6732 474.549 46.212 474.549 Q39.7508 474.549 36.0905 477.222 Q32.3984 479.896 32.3984 484.543 Q32.3984 489.19 36.0905 491.863 Q39.7508 494.505 46.212 494.505 Z" fill="#000000" fill-rule="nonzero" fill-opacity="1" /><path clip-path="url(#clip472)" d="M297.451 246.04 L297.451 1445.72 L343.131 1445.72 L343.131 246.04 L297.451 246.04 L297.451 246.04  Z" fill="#009af9" fill-rule="evenodd" fill-opacity="1"/>
<polyline clip-path="url(#clip472)" style="stroke:#000000; stroke-linecap:round; stroke-linejoin:round; stroke-width:4; stroke-opacity:1; fill:none" points="297.451,246.04 297.451,1445.72 343.131,1445.72 343.131,246.04 297.451,246.04 "/>
<path clip-path="url(#clip472)" d="M468.75 246.04 L468.75 1445.72 L514.429 1445.72 L514.429 246.04 L468.75 246.04 L468.75 246.04  Z" fill="#009af9" fill-rule="evenodd" fill-opacity="1"/>
<polyline clip-path="url(#clip472)" style="stroke:#000000; stroke-linecap:round; stroke-linejoin:round; stroke-width:4; stroke-opacity:1; fill:none" points="468.75,246.04 468.75,1445.72 514.429,1445.72 514.429,246.04 468.75,246.04 "/>
<path clip-path="url(#clip472)" d="M640.048 246.041 L640.048 1445.72 L685.728 1445.72 L685.728 246.041 L640.048 246.041 L640.048 246.041  Z" fill="#009af9" fill-rule="evenodd" fill-opacity="1"/>
<polyline clip-path="url(#clip472)" style="stroke:#000000; stroke-linecap:round; stroke-linejoin:round; stroke-width:4; stroke-opacity:1; fill:none" points="640.048,246.041 640.048,1445.72 685.728,1445.72 685.728,246.041 640.048,246.041 "/>
<path clip-path="url(#clip472)" d="M811.347 87.9763 L811.347 1445.72 L857.027 1445.72 L857.027 87.9763 L811.347 87.9763 L811.347 87.9763  Z" fill="#009af9" fill-rule="evenodd" fill-opacity="1"/>
<polyline clip-path="url(#clip472)" style="stroke:#000000; stroke-linecap:round; stroke-linejoin:round; stroke-width:4; stroke-opacity:1; fill:none" points="811.347,87.9763 811.347,1445.72 857.027,1445.72 857.027,87.9763 811.347,87.9763 "/>
<path clip-path="url(#clip472)" d="M982.646 246.04 L982.646 1445.72 L1028.33 1445.72 L1028.33 246.04 L982.646 246.04 L982.646 246.04  Z" fill="#009af9" fill-rule="evenodd" fill-opacity="1"/>
<polyline clip-path="url(#clip472)" style="stroke:#000000; stroke-linecap:round; stroke-linejoin:round; stroke-width:4; stroke-opacity:1; fill:none" points="982.646,246.04 982.646,1445.72 1028.33,1445.72 1028.33,246.04 982.646,246.04 "/>
<circle clip-path="url(#clip472)" style="fill:#009af9; stroke:none; fill-opacity:0" cx="320.291" cy="246.04" r="2"/>
<circle clip-path="url(#clip472)" style="fill:#009af9; stroke:none; fill-opacity:0" cx="491.589" cy="246.04" r="2"/>
<circle clip-path="url(#clip472)" style="fill:#009af9; stroke:none; fill-opacity:0" cx="662.888" cy="246.041" r="2"/>
<circle clip-path="url(#clip472)" style="fill:#009af9; stroke:none; fill-opacity:0" cx="834.187" cy="87.9763" r="2"/>
<circle clip-path="url(#clip472)" style="fill:#009af9; stroke:none; fill-opacity:0" cx="1005.49" cy="246.04" r="2"/>
<path clip-path="url(#clip472)" d="M343.131 967.213 L343.131 1445.72 L388.81 1445.72 L388.81 967.213 L343.131 967.213 L343.131 967.213  Z" fill="#e26f46" fill-rule="evenodd" fill-opacity="1"/>
<polyline clip-path="url(#clip472)" style="stroke:#000000; stroke-linecap:round; stroke-linejoin:round; stroke-width:4; stroke-opacity:1; fill:none" points="343.131,967.213 343.131,1445.72 388.81,1445.72 388.81,967.213 343.131,967.213 "/>
<path clip-path="url(#clip472)" d="M514.429 972.272 L514.429 1445.72 L560.109 1445.72 L560.109 972.272 L514.429 972.272 L514.429 972.272  Z" fill="#e26f46" fill-rule="evenodd" fill-opacity="1"/>
<polyline clip-path="url(#clip472)" style="stroke:#000000; stroke-linecap:round; stroke-linejoin:round; stroke-width:4; stroke-opacity:1; fill:none" points="514.429,972.272 514.429,1445.72 560.109,1445.72 560.109,972.272 514.429,972.272 "/>
<path clip-path="url(#clip472)" d="M685.728 967.213 L685.728 1445.72 L731.408 1445.72 L731.408 967.213 L685.728 967.213 L685.728 967.213  Z" fill="#e26f46" fill-rule="evenodd" fill-opacity="1"/>
<polyline clip-path="url(#clip472)" style="stroke:#000000; stroke-linecap:round; stroke-linejoin:round; stroke-width:4; stroke-opacity:1; fill:none" points="685.728,967.213 685.728,1445.72 731.408,1445.72 731.408,967.213 685.728,967.213 "/>
<path clip-path="url(#clip472)" d="M857.027 539.758 L857.027 1445.72 L902.707 1445.72 L902.707 539.758 L857.027 539.758 L857.027 539.758  Z" fill="#e26f46" fill-rule="evenodd" fill-opacity="1"/>
<polyline clip-path="url(#clip472)" style="stroke:#000000; stroke-linecap:round; stroke-linejoin:round; stroke-width:4; stroke-opacity:1; fill:none" points="857.027,539.758 857.027,1445.72 902.707,1445.72 902.707,539.758 857.027,539.758 "/>
<path clip-path="url(#clip472)" d="M1028.33 465.362 L1028.33 1445.72 L1074.01 1445.72 L1074.01 465.362 L1028.33 465.362 L1028.33 465.362  Z" fill="#e26f46" fill-rule="evenodd" fill-opacity="1"/>
<polyline clip-path="url(#clip472)" style="stroke:#000000; stroke-linecap:round; stroke-linejoin:round; stroke-width:4; stroke-opacity:1; fill:none" points="1028.33,465.362 1028.33,1445.72 1074.01,1445.72 1074.01,465.362 1028.33,465.362 "/>
<circle clip-path="url(#clip472)" style="fill:#e26f46; stroke:none; fill-opacity:0" cx="365.97" cy="967.213" r="2"/>
<circle clip-path="url(#clip472)" style="fill:#e26f46; stroke:none; fill-opacity:0" cx="537.269" cy="972.272" r="2"/>
<circle clip-path="url(#clip472)" style="fill:#e26f46; stroke:none; fill-opacity:0" cx="708.568" cy="967.213" r="2"/>
<circle clip-path="url(#clip472)" style="fill:#e26f46; stroke:none; fill-opacity:0" cx="879.867" cy="539.758" r="2"/>
<circle clip-path="url(#clip472)" style="fill:#e26f46; stroke:none; fill-opacity:0" cx="1051.17" cy="465.362" r="2"/>
<path clip-path="url(#clip472)" d="M388.81 713.777 L388.81 1445.72 L434.49 1445.72 L434.49 713.777 L388.81 713.777 L388.81 713.777  Z" fill="#3da44d" fill-rule="evenodd" fill-opacity="1"/>
<polyline clip-path="url(#clip472)" style="stroke:#000000; stroke-linecap:round; stroke-linejoin:round; stroke-width:4; stroke-opacity:1; fill:none" points="388.81,713.777 388.81,1445.72 434.49,1445.72 434.49,713.777 388.81,713.777 "/>
<path clip-path="url(#clip472)" d="M560.109 713.779 L560.109 1445.72 L605.789 1445.72 L605.789 713.779 L560.109 713.779 L560.109 713.779  Z" fill="#3da44d" fill-rule="evenodd" fill-opacity="1"/>
<polyline clip-path="url(#clip472)" style="stroke:#000000; stroke-linecap:round; stroke-linejoin:round; stroke-width:4; stroke-opacity:1; fill:none" points="560.109,713.779 560.109,1445.72 605.789,1445.72 605.789,713.779 560.109,713.779 "/>
<path clip-path="url(#clip472)" d="M731.408 713.779 L731.408 1445.72 L777.087 1445.72 L777.087 713.779 L731.408 713.779 L731.408 713.779  Z" fill="#3da44d" fill-rule="evenodd" fill-opacity="1"/>
<polyline clip-path="url(#clip472)" style="stroke:#000000; stroke-linecap:round; stroke-linejoin:round; stroke-width:4; stroke-opacity:1; fill:none" points="731.408,713.779 731.408,1445.72 777.087,1445.72 777.087,713.779 731.408,713.779 "/>
<path clip-path="url(#clip472)" d="M902.707 600.014 L902.707 1445.72 L948.386 1445.72 L948.386 600.014 L902.707 600.014 L902.707 600.014  Z" fill="#3da44d" fill-rule="evenodd" fill-opacity="1"/>
<polyline clip-path="url(#clip472)" style="stroke:#000000; stroke-linecap:round; stroke-linejoin:round; stroke-width:4; stroke-opacity:1; fill:none" points="902.707,600.014 902.707,1445.72 948.386,1445.72 948.386,600.014 902.707,600.014 "/>
<path clip-path="url(#clip472)" d="M1074.01 713.777 L1074.01 1445.72 L1119.68 1445.72 L1119.68 713.777 L1074.01 713.777 L1074.01 713.777  Z" fill="#3da44d" fill-rule="evenodd" fill-opacity="1"/>
<polyline clip-path="url(#clip472)" style="stroke:#000000; stroke-linecap:round; stroke-linejoin:round; stroke-width:4; stroke-opacity:1; fill:none" points="1074.01,713.777 1074.01,1445.72 1119.68,1445.72 1119.68,713.777 1074.01,713.777 "/>
<circle clip-path="url(#clip472)" style="fill:#3da44d; stroke:none; fill-opacity:0" cx="411.65" cy="713.777" r="2"/>
<circle clip-path="url(#clip472)" style="fill:#3da44d; stroke:none; fill-opacity:0" cx="582.949" cy="713.779" r="2"/>
<circle clip-path="url(#clip472)" style="fill:#3da44d; stroke:none; fill-opacity:0" cx="754.248" cy="713.779" r="2"/>
<circle clip-path="url(#clip472)" style="fill:#3da44d; stroke:none; fill-opacity:0" cx="925.546" cy="600.014" r="2"/>
<circle clip-path="url(#clip472)" style="fill:#3da44d; stroke:none; fill-opacity:0" cx="1096.85" cy="713.777" r="2"/>
<path clip-path="url(#clip470)" d="M990.396 302.578 L1136.99 302.578 L1136.99 95.2176 L990.396 95.2176  Z" fill="#ffffff" fill-rule="evenodd" fill-opacity="1"/>
<polyline clip-path="url(#clip470)" style="stroke:#000000; stroke-linecap:round; stroke-linejoin:round; stroke-width:4; stroke-opacity:1; fill:none" points="990.396,302.578 1136.99,302.578 1136.99,95.2176 990.396,95.2176 990.396,302.578 "/>
<path clip-path="url(#clip470)" d="M1000.6 167.794 L1061.8 167.794 L1061.8 126.322 L1000.6 126.322 L1000.6 167.794  Z" fill="#009af9" fill-rule="evenodd" fill-opacity="1"/>
<polyline clip-path="url(#clip470)" style="stroke:#000000; stroke-linecap:round; stroke-linejoin:round; stroke-width:4; stroke-opacity:1; fill:none" points="1000.6,167.794 1061.8,167.794 1061.8,126.322 1000.6,126.322 1000.6,167.794 "/>
<path clip-path="url(#clip470)" d="M1088.39 148.134 Q1089.89 148.643 1091.31 150.31 Q1092.74 151.977 1094.18 154.893 L1098.92 164.338 L1093.9 164.338 L1089.48 155.472 Q1087.76 152 1086.14 150.865 Q1084.55 149.731 1081.77 149.731 L1076.68 149.731 L1076.68 164.338 L1072 164.338 L1072 129.778 L1082.56 129.778 Q1088.48 129.778 1091.4 132.254 Q1094.31 134.731 1094.31 139.731 Q1094.31 142.995 1092.79 145.148 Q1091.28 147.301 1088.39 148.134 M1076.68 133.62 L1076.68 145.889 L1082.56 145.889 Q1085.94 145.889 1087.65 144.338 Q1089.38 142.764 1089.38 139.731 Q1089.38 136.699 1087.65 135.171 Q1085.94 133.62 1082.56 133.62 L1076.68 133.62 Z" fill="#000000" fill-rule="nonzero" fill-opacity="1" /><path clip-path="url(#clip470)" d="M1126.31 138.412 L1116.93 151.027 L1126.79 164.338 L1121.77 164.338 L1114.22 154.152 L1106.68 164.338 L1101.65 164.338 L1111.72 150.773 L1102.51 138.412 L1107.53 138.412 L1114.41 147.648 L1121.28 138.412 L1126.31 138.412 Z" fill="#000000" fill-rule="nonzero" fill-opacity="1" /><path clip-path="url(#clip470)" d="M1000.6 219.634 L1061.8 219.634 L1061.8 178.162 L1000.6 178.162 L1000.6 219.634  Z" fill="#e26f46" fill-rule="evenodd" fill-opacity="1"/>
<polyline clip-path="url(#clip470)" style="stroke:#000000; stroke-linecap:round; stroke-linejoin:round; stroke-width:4; stroke-opacity:1; fill:none" points="1000.6,219.634 1061.8,219.634 1061.8,178.162 1000.6,178.162 1000.6,219.634 "/>
<path clip-path="url(#clip470)" d="M1088.39 199.974 Q1089.89 200.483 1091.31 202.15 Q1092.74 203.817 1094.18 206.733 L1098.92 216.178 L1093.9 216.178 L1089.48 207.312 Q1087.76 203.84 1086.14 202.705 Q1084.55 201.571 1081.77 201.571 L1076.68 201.571 L1076.68 216.178 L1072 216.178 L1072 181.618 L1082.56 181.618 Q1088.48 181.618 1091.4 184.094 Q1094.31 186.571 1094.31 191.571 Q1094.31 194.835 1092.79 196.988 Q1091.28 199.141 1088.39 199.974 M1076.68 185.46 L1076.68 197.729 L1082.56 197.729 Q1085.94 197.729 1087.65 196.178 Q1089.38 194.604 1089.38 191.571 Q1089.38 188.539 1087.65 187.011 Q1085.94 185.46 1082.56 185.46 L1076.68 185.46 Z" fill="#000000" fill-rule="nonzero" fill-opacity="1" /><path clip-path="url(#clip470)" d="M1112.95 218.585 Q1111.14 223.215 1109.43 224.627 Q1107.72 226.039 1104.85 226.039 L1101.44 226.039 L1101.44 222.474 L1103.94 222.474 Q1105.7 222.474 1106.68 221.64 Q1107.65 220.807 1108.83 217.705 L1109.59 215.761 L1099.11 190.252 L1103.62 190.252 L1111.72 210.529 L1119.82 190.252 L1124.34 190.252 L1112.95 218.585 Z" fill="#000000" fill-rule="nonzero" fill-opacity="1" /><path clip-path="url(#clip470)" d="M1000.6 271.474 L1061.8 271.474 L1061.8 230.002 L1000.6 230.002 L1000.6 271.474  Z" fill="#3da44d" fill-rule="evenodd" fill-opacity="1"/>
<polyline clip-path="url(#clip470)" style="stroke:#000000; stroke-linecap:round; stroke-linejoin:round; stroke-width:4; stroke-opacity:1; fill:none" points="1000.6,271.474 1061.8,271.474 1061.8,230.002 1000.6,230.002 1000.6,271.474 "/>
<path clip-path="url(#clip470)" d="M1088.39 251.814 Q1089.89 252.323 1091.31 253.99 Q1092.74 255.657 1094.18 258.573 L1098.92 268.018 L1093.9 268.018 L1089.48 259.152 Q1087.76 255.68 1086.14 254.545 Q1084.55 253.411 1081.77 253.411 L1076.68 253.411 L1076.68 268.018 L1072 268.018 L1072 233.458 L1082.56 233.458 Q1088.48 233.458 1091.4 235.934 Q1094.31 238.411 1094.31 243.411 Q1094.31 246.675 1092.79 248.828 Q1091.28 250.981 1088.39 251.814 M1076.68 237.3 L1076.68 249.569 L1082.56 249.569 Q1085.94 249.569 1087.65 248.018 Q1089.38 246.444 1089.38 243.411 Q1089.38 240.379 1087.65 238.851 Q1085.94 237.3 1082.56 237.3 L1076.68 237.3 Z" fill="#000000" fill-rule="nonzero" fill-opacity="1" /><path clip-path="url(#clip470)" d="M1102.9 242.092 L1123.13 242.092 L1123.13 245.981 L1107.12 264.615 L1123.13 264.615 L1123.13 268.018 L1102.32 268.018 L1102.32 264.129 L1118.34 245.495 L1102.9 245.495 L1102.9 242.092 Z" fill="#000000" fill-rule="nonzero" fill-opacity="1" /><path clip-path="url(#clip470)" d="M1434.7 1486.45 L2352.76 1486.45 L2352.76 47.2441 L1434.7 47.2441  Z" fill="#ffffff" fill-rule="evenodd" fill-opacity="1"/>
<defs>
  <clipPath id="clip473">
    <rect x="1434" y="47" width="919" height="1440"/>
  </clipPath>
</defs>
<polyline clip-path="url(#clip473)" style="stroke:#000000; stroke-linecap:round; stroke-linejoin:round; stroke-width:2; stroke-opacity:0.1; fill:none" points="1551.13,1486.45 1551.13,47.2441 "/>
<polyline clip-path="url(#clip473)" style="stroke:#000000; stroke-linecap:round; stroke-linejoin:round; stroke-width:2; stroke-opacity:0.1; fill:none" points="1722.43,1486.45 1722.43,47.2441 "/>
<polyline clip-path="url(#clip473)" style="stroke:#000000; stroke-linecap:round; stroke-linejoin:round; stroke-width:2; stroke-opacity:0.1; fill:none" points="1893.73,1486.45 1893.73,47.2441 "/>
<polyline clip-path="url(#clip473)" style="stroke:#000000; stroke-linecap:round; stroke-linejoin:round; stroke-width:2; stroke-opacity:0.1; fill:none" points="2065.03,1486.45 2065.03,47.2441 "/>
<polyline clip-path="url(#clip473)" style="stroke:#000000; stroke-linecap:round; stroke-linejoin:round; stroke-width:2; stroke-opacity:0.1; fill:none" points="2236.33,1486.45 2236.33,47.2441 "/>
<polyline clip-path="url(#clip470)" style="stroke:#000000; stroke-linecap:round; stroke-linejoin:round; stroke-width:4; stroke-opacity:1; fill:none" points="1434.7,1486.45 2352.76,1486.45 "/>
<polyline clip-path="url(#clip470)" style="stroke:#000000; stroke-linecap:round; stroke-linejoin:round; stroke-width:4; stroke-opacity:1; fill:none" points="1551.13,1486.45 1551.13,1467.55 "/>
<polyline clip-path="url(#clip470)" style="stroke:#000000; stroke-linecap:round; stroke-linejoin:round; stroke-width:4; stroke-opacity:1; fill:none" points="1722.43,1486.45 1722.43,1467.55 "/>
<polyline clip-path="url(#clip470)" style="stroke:#000000; stroke-linecap:round; stroke-linejoin:round; stroke-width:4; stroke-opacity:1; fill:none" points="1893.73,1486.45 1893.73,1467.55 "/>
<polyline clip-path="url(#clip470)" style="stroke:#000000; stroke-linecap:round; stroke-linejoin:round; stroke-width:4; stroke-opacity:1; fill:none" points="2065.03,1486.45 2065.03,1467.55 "/>
<polyline clip-path="url(#clip470)" style="stroke:#000000; stroke-linecap:round; stroke-linejoin:round; stroke-width:4; stroke-opacity:1; fill:none" points="2236.33,1486.45 2236.33,1467.55 "/>
<path clip-path="url(#clip470)" d="M1451.16 1518.13 L1451.16 1531.12 L1457.04 1531.12 Q1460.3 1531.12 1462.08 1529.43 Q1463.86 1527.74 1463.86 1524.61 Q1463.86 1521.51 1462.08 1519.82 Q1460.3 1518.13 1457.04 1518.13 L1451.16 1518.13 M1446.48 1514.29 L1457.04 1514.29 Q1462.85 1514.29 1465.81 1516.93 Q1468.79 1519.54 1468.79 1524.61 Q1468.79 1529.73 1465.81 1532.34 Q1462.85 1534.96 1457.04 1534.96 L1451.16 1534.96 L1451.16 1548.85 L1446.48 1548.85 L1446.48 1514.29 Z" fill="#000000" fill-rule="nonzero" fill-opacity="1" /><path clip-path="url(#clip470)" d="M1489.07 1526.9 Q1488.36 1526.49 1487.5 1526.3 Q1486.67 1526.09 1485.65 1526.09 Q1482.04 1526.09 1480.09 1528.45 Q1478.17 1530.79 1478.17 1535.19 L1478.17 1548.85 L1473.89 1548.85 L1473.89 1522.92 L1478.17 1522.92 L1478.17 1526.95 Q1479.51 1524.59 1481.67 1523.45 Q1483.82 1522.3 1486.9 1522.3 Q1487.34 1522.3 1487.87 1522.37 Q1488.4 1522.41 1489.05 1522.53 L1489.07 1526.9 Z" fill="#000000" fill-rule="nonzero" fill-opacity="1" /><path clip-path="url(#clip470)" d="M1502.54 1525.91 Q1499.12 1525.91 1497.13 1528.59 Q1495.14 1531.26 1495.14 1535.91 Q1495.14 1540.56 1497.11 1543.25 Q1499.1 1545.91 1502.54 1545.91 Q1505.95 1545.91 1507.94 1543.22 Q1509.93 1540.54 1509.93 1535.91 Q1509.93 1531.3 1507.94 1528.62 Q1505.95 1525.91 1502.54 1525.91 M1502.54 1522.3 Q1508.1 1522.3 1511.27 1525.91 Q1514.44 1529.52 1514.44 1535.91 Q1514.44 1542.27 1511.27 1545.91 Q1508.1 1549.52 1502.54 1549.52 Q1496.97 1549.52 1493.79 1545.91 Q1490.65 1542.27 1490.65 1535.91 Q1490.65 1529.52 1493.79 1525.91 Q1496.97 1522.3 1502.54 1522.3 Z" fill="#000000" fill-rule="nonzero" fill-opacity="1" /><path clip-path="url(#clip470)" d="M1525.62 1544.96 L1525.62 1558.71 L1521.34 1558.71 L1521.34 1522.92 L1525.62 1522.92 L1525.62 1526.86 Q1526.97 1524.54 1529 1523.43 Q1531.06 1522.3 1533.91 1522.3 Q1538.63 1522.3 1541.57 1526.05 Q1544.54 1529.8 1544.54 1535.91 Q1544.54 1542.02 1541.57 1545.77 Q1538.63 1549.52 1533.91 1549.52 Q1531.06 1549.52 1529 1548.41 Q1526.97 1547.27 1525.62 1544.96 M1540.11 1535.91 Q1540.11 1531.21 1538.17 1528.55 Q1536.25 1525.86 1532.87 1525.86 Q1529.49 1525.86 1527.54 1528.55 Q1525.62 1531.21 1525.62 1535.91 Q1525.62 1540.61 1527.54 1543.29 Q1529.49 1545.95 1532.87 1545.95 Q1536.25 1545.95 1538.17 1543.29 Q1540.11 1540.61 1540.11 1535.91 Z" fill="#000000" fill-rule="nonzero" fill-opacity="1" /><path clip-path="url(#clip470)" d="M1561.64 1525.91 Q1558.22 1525.91 1556.23 1528.59 Q1554.23 1531.26 1554.23 1535.91 Q1554.23 1540.56 1556.2 1543.25 Q1558.19 1545.91 1561.64 1545.91 Q1565.04 1545.91 1567.04 1543.22 Q1569.03 1540.54 1569.03 1535.91 Q1569.03 1531.3 1567.04 1528.62 Q1565.04 1525.91 1561.64 1525.91 M1561.64 1522.3 Q1567.2 1522.3 1570.37 1525.91 Q1573.54 1529.52 1573.54 1535.91 Q1573.54 1542.27 1570.37 1545.91 Q1567.2 1549.52 1561.64 1549.52 Q1556.06 1549.52 1552.89 1545.91 Q1549.74 1542.27 1549.74 1535.91 Q1549.74 1529.52 1552.89 1525.91 Q1556.06 1522.3 1561.64 1522.3 Z" fill="#000000" fill-rule="nonzero" fill-opacity="1" /><path clip-path="url(#clip470)" d="M1597.13 1523.69 L1597.13 1527.71 Q1595.32 1526.79 1593.38 1526.32 Q1591.43 1525.86 1589.35 1525.86 Q1586.18 1525.86 1584.58 1526.83 Q1583.01 1527.81 1583.01 1529.75 Q1583.01 1531.23 1584.14 1532.09 Q1585.28 1532.92 1588.7 1533.69 L1590.16 1534.01 Q1594.7 1534.98 1596.6 1536.76 Q1598.52 1538.52 1598.52 1541.7 Q1598.52 1545.31 1595.65 1547.41 Q1592.8 1549.52 1587.8 1549.52 Q1585.72 1549.52 1583.45 1549.1 Q1581.2 1548.71 1578.7 1547.9 L1578.7 1543.5 Q1581.06 1544.73 1583.35 1545.35 Q1585.65 1545.95 1587.89 1545.95 Q1590.9 1545.95 1592.52 1544.94 Q1594.14 1543.89 1594.14 1542.02 Q1594.14 1540.28 1592.96 1539.36 Q1591.8 1538.43 1587.85 1537.57 L1586.36 1537.23 Q1582.41 1536.39 1580.65 1534.68 Q1578.89 1532.95 1578.89 1529.94 Q1578.89 1526.28 1581.48 1524.29 Q1584.07 1522.3 1588.84 1522.3 Q1591.2 1522.3 1593.29 1522.64 Q1595.37 1522.99 1597.13 1523.69 Z" fill="#000000" fill-rule="nonzero" fill-opacity="1" /><path clip-path="url(#clip470)" d="M1627.47 1534.82 L1627.47 1536.9 L1607.89 1536.9 Q1608.17 1541.3 1610.53 1543.62 Q1612.91 1545.91 1617.15 1545.91 Q1619.6 1545.91 1621.9 1545.31 Q1624.21 1544.7 1626.48 1543.5 L1626.48 1547.53 Q1624.19 1548.5 1621.78 1549.01 Q1619.37 1549.52 1616.9 1549.52 Q1610.69 1549.52 1607.06 1545.91 Q1603.45 1542.3 1603.45 1536.14 Q1603.45 1529.77 1606.87 1526.05 Q1610.32 1522.3 1616.16 1522.3 Q1621.39 1522.3 1624.42 1525.68 Q1627.47 1529.03 1627.47 1534.82 M1623.22 1533.57 Q1623.17 1530.07 1621.25 1527.99 Q1619.35 1525.91 1616.2 1525.91 Q1612.64 1525.91 1610.48 1527.92 Q1608.35 1529.94 1608.03 1533.59 L1623.22 1533.57 Z" fill="#000000" fill-rule="nonzero" fill-opacity="1" /><path clip-path="url(#clip470)" d="M1651.53 1526.86 L1651.53 1512.83 L1655.78 1512.83 L1655.78 1548.85 L1651.53 1548.85 L1651.53 1544.96 Q1650.18 1547.27 1648.12 1548.41 Q1646.09 1549.52 1643.22 1549.52 Q1638.52 1549.52 1635.55 1545.77 Q1632.61 1542.02 1632.61 1535.91 Q1632.61 1529.8 1635.55 1526.05 Q1638.52 1522.3 1643.22 1522.3 Q1646.09 1522.3 1648.12 1523.43 Q1650.18 1524.54 1651.53 1526.86 M1637.01 1535.91 Q1637.01 1540.61 1638.93 1543.29 Q1640.88 1545.95 1644.26 1545.95 Q1647.64 1545.95 1649.58 1543.29 Q1651.53 1540.61 1651.53 1535.91 Q1651.53 1531.21 1649.58 1528.55 Q1647.64 1525.86 1644.26 1525.86 Q1640.88 1525.86 1638.93 1528.55 Q1637.01 1531.21 1637.01 1535.91 Z" fill="#000000" fill-rule="nonzero" fill-opacity="1" /><path clip-path="url(#clip470)" d="M1658.86 1514.29 L1663.58 1514.29 L1670.85 1543.5 L1678.09 1514.29 L1683.35 1514.29 L1690.61 1543.5 L1697.86 1514.29 L1702.6 1514.29 L1693.92 1548.85 L1688.04 1548.85 L1680.75 1518.85 L1673.39 1548.85 L1667.51 1548.85 L1658.86 1514.29 Z" fill="#000000" fill-rule="nonzero" fill-opacity="1" /><path clip-path="url(#clip470)" d="M1717.37 1535.82 Q1712.21 1535.82 1710.22 1537 Q1708.23 1538.18 1708.23 1541.02 Q1708.23 1543.29 1709.71 1544.63 Q1711.22 1545.95 1713.79 1545.95 Q1717.33 1545.95 1719.46 1543.45 Q1721.61 1540.93 1721.61 1536.76 L1721.61 1535.82 L1717.37 1535.82 M1725.87 1534.06 L1725.87 1548.85 L1721.61 1548.85 L1721.61 1544.91 Q1720.15 1547.27 1717.98 1548.41 Q1715.8 1549.52 1712.65 1549.52 Q1708.67 1549.52 1706.31 1547.3 Q1703.97 1545.05 1703.97 1541.3 Q1703.97 1536.93 1706.89 1534.7 Q1709.83 1532.48 1715.64 1532.48 L1721.61 1532.48 L1721.61 1532.07 Q1721.61 1529.13 1719.67 1527.53 Q1717.74 1525.91 1714.25 1525.91 Q1712.03 1525.91 1709.92 1526.44 Q1707.81 1526.97 1705.87 1528.04 L1705.87 1524.1 Q1708.21 1523.2 1710.41 1522.76 Q1712.6 1522.3 1714.69 1522.3 Q1720.31 1522.3 1723.09 1525.21 Q1725.87 1528.13 1725.87 1534.06 Z" fill="#000000" fill-rule="nonzero" fill-opacity="1" /><path clip-path="url(#clip470)" d="M1756.19 1533.2 L1756.19 1548.85 L1751.93 1548.85 L1751.93 1533.34 Q1751.93 1529.66 1750.5 1527.83 Q1749.06 1526 1746.19 1526 Q1742.74 1526 1740.75 1528.2 Q1738.76 1530.4 1738.76 1534.2 L1738.76 1548.85 L1734.48 1548.85 L1734.48 1522.92 L1738.76 1522.92 L1738.76 1526.95 Q1740.29 1524.61 1742.35 1523.45 Q1744.43 1522.3 1747.14 1522.3 Q1751.61 1522.3 1753.9 1525.07 Q1756.19 1527.83 1756.19 1533.2 Z" fill="#000000" fill-rule="nonzero" fill-opacity="1" /><path clip-path="url(#clip470)" d="M1781.75 1535.58 Q1781.75 1530.95 1779.83 1528.41 Q1777.93 1525.86 1774.48 1525.86 Q1771.05 1525.86 1769.13 1528.41 Q1767.23 1530.95 1767.23 1535.58 Q1767.23 1540.19 1769.13 1542.74 Q1771.05 1545.28 1774.48 1545.28 Q1777.93 1545.28 1779.83 1542.74 Q1781.75 1540.19 1781.75 1535.58 M1786.01 1545.63 Q1786.01 1552.25 1783.07 1555.47 Q1780.13 1558.71 1774.06 1558.71 Q1771.82 1558.71 1769.83 1558.36 Q1767.84 1558.04 1765.96 1557.34 L1765.96 1553.2 Q1767.84 1554.22 1769.66 1554.7 Q1771.49 1555.19 1773.39 1555.19 Q1777.58 1555.19 1779.66 1552.99 Q1781.75 1550.82 1781.75 1546.39 L1781.75 1544.29 Q1780.43 1546.58 1778.37 1547.71 Q1776.31 1548.85 1773.44 1548.85 Q1768.67 1548.85 1765.75 1545.21 Q1762.84 1541.58 1762.84 1535.58 Q1762.84 1529.57 1765.75 1525.93 Q1768.67 1522.3 1773.44 1522.3 Q1776.31 1522.3 1778.37 1523.43 Q1780.43 1524.57 1781.75 1526.86 L1781.75 1522.92 L1786.01 1522.92 L1786.01 1545.63 Z" fill="#000000" fill-rule="nonzero" fill-opacity="1" /><path clip-path="url(#clip470)" d="M1859.05 1514.29 L1863.78 1514.29 L1871.04 1543.5 L1878.29 1514.29 L1883.54 1514.29 L1890.81 1543.5 L1898.06 1514.29 L1902.8 1514.29 L1894.12 1548.85 L1888.24 1548.85 L1880.95 1518.85 L1873.59 1548.85 L1867.71 1548.85 L1859.05 1514.29 Z" fill="#000000" fill-rule="nonzero" fill-opacity="1" /><path clip-path="url(#clip470)" d="M1906.69 1538.62 L1906.69 1522.92 L1910.95 1522.92 L1910.95 1538.45 Q1910.95 1542.13 1912.39 1543.99 Q1913.82 1545.82 1916.69 1545.82 Q1920.14 1545.82 1922.13 1543.62 Q1924.15 1541.42 1924.15 1537.62 L1924.15 1522.92 L1928.41 1522.92 L1928.41 1548.85 L1924.15 1548.85 L1924.15 1544.87 Q1922.6 1547.23 1920.54 1548.38 Q1918.5 1549.52 1915.79 1549.52 Q1911.32 1549.52 1909.01 1546.74 Q1906.69 1543.96 1906.69 1538.62 M1917.41 1522.3 L1917.41 1522.3 Z" fill="#000000" fill-rule="nonzero" fill-opacity="1" /><path clip-path="url(#clip470)" d="M2042.15 1514.29 L2062.01 1514.29 L2062.01 1518.22 L2046.82 1518.22 L2046.82 1528.41 L2060.53 1528.41 L2060.53 1532.34 L2046.82 1532.34 L2046.82 1548.85 L2042.15 1548.85 L2042.15 1514.29 Z" fill="#000000" fill-rule="nonzero" fill-opacity="1" /><path clip-path="url(#clip470)" d="M2066.2 1538.62 L2066.2 1522.92 L2070.46 1522.92 L2070.46 1538.45 Q2070.46 1542.13 2071.89 1543.99 Q2073.33 1545.82 2076.2 1545.82 Q2079.65 1545.82 2081.64 1543.62 Q2083.65 1541.42 2083.65 1537.62 L2083.65 1522.92 L2087.91 1522.92 L2087.91 1548.85 L2083.65 1548.85 L2083.65 1544.87 Q2082.1 1547.23 2080.04 1548.38 Q2078 1549.52 2075.29 1549.52 Q2070.83 1549.52 2068.51 1546.74 Q2066.2 1543.96 2066.2 1538.62 M2076.92 1522.3 L2076.92 1522.3 Z" fill="#000000" fill-rule="nonzero" fill-opacity="1" /><path clip-path="url(#clip470)" d="M2228.83 1543.92 L2228.83 1534.63 L2221.19 1534.63 L2221.19 1530.79 L2233.46 1530.79 L2233.46 1545.63 Q2230.75 1547.55 2227.49 1548.55 Q2224.22 1549.52 2220.52 1549.52 Q2212.42 1549.52 2207.83 1544.8 Q2203.27 1540.05 2203.27 1531.6 Q2203.27 1523.13 2207.83 1518.41 Q2212.42 1513.66 2220.52 1513.66 Q2223.9 1513.66 2226.93 1514.5 Q2229.99 1515.33 2232.55 1516.95 L2232.55 1521.93 Q2229.96 1519.73 2227.05 1518.62 Q2224.13 1517.51 2220.91 1517.51 Q2214.57 1517.51 2211.37 1521.05 Q2208.2 1524.59 2208.2 1531.6 Q2208.2 1538.59 2211.37 1542.13 Q2214.57 1545.68 2220.91 1545.68 Q2223.39 1545.68 2225.33 1545.26 Q2227.28 1544.82 2228.83 1543.92 Z" fill="#000000" fill-rule="nonzero" fill-opacity="1" /><path clip-path="url(#clip470)" d="M2253.55 1518.89 L2247.21 1536.09 L2259.92 1536.09 L2253.55 1518.89 M2250.91 1514.29 L2256.21 1514.29 L2269.38 1548.85 L2264.52 1548.85 L2261.37 1539.98 L2245.8 1539.98 L2242.65 1548.85 L2237.72 1548.85 L2250.91 1514.29 Z" fill="#000000" fill-rule="nonzero" fill-opacity="1" /><polyline clip-path="url(#clip473)" style="stroke:#000000; stroke-linecap:round; stroke-linejoin:round; stroke-width:2; stroke-opacity:0.1; fill:none" points="1434.7,1445.72 2352.76,1445.72 "/>
<polyline clip-path="url(#clip473)" style="stroke:#000000; stroke-linecap:round; stroke-linejoin:round; stroke-width:2; stroke-opacity:0.1; fill:none" points="1434.7,1095.27 2352.76,1095.27 "/>
<polyline clip-path="url(#clip473)" style="stroke:#000000; stroke-linecap:round; stroke-linejoin:round; stroke-width:2; stroke-opacity:0.1; fill:none" points="1434.7,744.819 2352.76,744.819 "/>
<polyline clip-path="url(#clip473)" style="stroke:#000000; stroke-linecap:round; stroke-linejoin:round; stroke-width:2; stroke-opacity:0.1; fill:none" points="1434.7,394.371 2352.76,394.371 "/>
<polyline clip-path="url(#clip470)" style="stroke:#000000; stroke-linecap:round; stroke-linejoin:round; stroke-width:4; stroke-opacity:1; fill:none" points="1434.7,1486.45 1434.7,47.2441 "/>
<polyline clip-path="url(#clip470)" style="stroke:#000000; stroke-linecap:round; stroke-linejoin:round; stroke-width:4; stroke-opacity:1; fill:none" points="1434.7,1445.72 1453.6,1445.72 "/>
<polyline clip-path="url(#clip470)" style="stroke:#000000; stroke-linecap:round; stroke-linejoin:round; stroke-width:4; stroke-opacity:1; fill:none" points="1434.7,1095.27 1453.6,1095.27 "/>
<polyline clip-path="url(#clip470)" style="stroke:#000000; stroke-linecap:round; stroke-linejoin:round; stroke-width:4; stroke-opacity:1; fill:none" points="1434.7,744.819 1453.6,744.819 "/>
<polyline clip-path="url(#clip470)" style="stroke:#000000; stroke-linecap:round; stroke-linejoin:round; stroke-width:4; stroke-opacity:1; fill:none" points="1434.7,394.371 1453.6,394.371 "/>
<path clip-path="url(#clip470)" d="M1341.53 1431.51 Q1337.92 1431.51 1336.09 1435.08 Q1334.28 1438.62 1334.28 1445.75 Q1334.28 1452.86 1336.09 1456.42 Q1337.92 1459.96 1341.53 1459.96 Q1345.16 1459.96 1346.97 1456.42 Q1348.8 1452.86 1348.8 1445.75 Q1348.8 1438.62 1346.97 1435.08 Q1345.16 1431.51 1341.53 1431.51 M1341.53 1427.81 Q1347.34 1427.81 1350.39 1432.42 Q1353.47 1437 1353.47 1445.75 Q1353.47 1454.48 1350.39 1459.08 Q1347.34 1463.67 1341.53 1463.67 Q1335.72 1463.67 1332.64 1459.08 Q1329.58 1454.48 1329.58 1445.75 Q1329.58 1437 1332.64 1432.42 Q1335.72 1427.81 1341.53 1427.81 Z" fill="#000000" fill-rule="nonzero" fill-opacity="1" /><path clip-path="url(#clip470)" d="M1361.69 1457.12 L1366.57 1457.12 L1366.57 1463 L1361.69 1463 L1361.69 1457.12 Z" fill="#000000" fill-rule="nonzero" fill-opacity="1" /><path clip-path="url(#clip470)" d="M1386.76 1431.51 Q1383.15 1431.51 1381.32 1435.08 Q1379.51 1438.62 1379.51 1445.75 Q1379.51 1452.86 1381.32 1456.42 Q1383.15 1459.96 1386.76 1459.96 Q1390.39 1459.96 1392.2 1456.42 Q1394.03 1452.86 1394.03 1445.75 Q1394.03 1438.62 1392.2 1435.08 Q1390.39 1431.51 1386.76 1431.51 M1386.76 1427.81 Q1392.57 1427.81 1395.63 1432.42 Q1398.7 1437 1398.7 1445.75 Q1398.7 1454.48 1395.63 1459.08 Q1392.57 1463.67 1386.76 1463.67 Q1380.95 1463.67 1377.87 1459.08 Q1374.82 1454.48 1374.82 1445.75 Q1374.82 1437 1377.87 1432.42 Q1380.95 1427.81 1386.76 1427.81 Z" fill="#000000" fill-rule="nonzero" fill-opacity="1" /><path clip-path="url(#clip470)" d="M1343.13 1081.07 Q1339.51 1081.07 1337.69 1084.63 Q1335.88 1088.17 1335.88 1095.3 Q1335.88 1102.41 1337.69 1105.97 Q1339.51 1109.52 1343.13 1109.52 Q1346.76 1109.52 1348.57 1105.97 Q1350.39 1102.41 1350.39 1095.3 Q1350.39 1088.17 1348.57 1084.63 Q1346.76 1081.07 1343.13 1081.07 M1343.13 1077.36 Q1348.94 1077.36 1351.99 1081.97 Q1355.07 1086.55 1355.07 1095.3 Q1355.07 1104.03 1351.99 1108.64 Q1348.94 1113.22 1343.13 1113.22 Q1337.32 1113.22 1334.24 1108.64 Q1331.18 1104.03 1331.18 1095.3 Q1331.18 1086.55 1334.24 1081.97 Q1337.32 1077.36 1343.13 1077.36 Z" fill="#000000" fill-rule="nonzero" fill-opacity="1" /><path clip-path="url(#clip470)" d="M1363.29 1106.67 L1368.17 1106.67 L1368.17 1112.55 L1363.29 1112.55 L1363.29 1106.67 Z" fill="#000000" fill-rule="nonzero" fill-opacity="1" /><path clip-path="url(#clip470)" d="M1382.38 1108.61 L1398.7 1108.61 L1398.7 1112.55 L1376.76 1112.55 L1376.76 1108.61 Q1379.42 1105.86 1384.01 1101.23 Q1388.61 1096.58 1389.79 1095.23 Q1392.04 1092.71 1392.92 1090.97 Q1393.82 1089.21 1393.82 1087.52 Q1393.82 1084.77 1391.88 1083.03 Q1389.95 1081.3 1386.85 1081.3 Q1384.65 1081.3 1382.2 1082.06 Q1379.77 1082.83 1376.99 1084.38 L1376.99 1079.65 Q1379.82 1078.52 1382.27 1077.94 Q1384.72 1077.36 1386.76 1077.36 Q1392.13 1077.36 1395.32 1080.05 Q1398.52 1082.73 1398.52 1087.22 Q1398.52 1089.35 1397.71 1091.27 Q1396.92 1093.17 1394.82 1095.77 Q1394.24 1096.44 1391.13 1099.65 Q1388.03 1102.85 1382.38 1108.61 Z" fill="#000000" fill-rule="nonzero" fill-opacity="1" /><path clip-path="url(#clip470)" d="M1341.04 730.618 Q1337.43 730.618 1335.6 734.183 Q1333.8 737.724 1333.8 744.854 Q1333.8 751.96 1335.6 755.525 Q1337.43 759.067 1341.04 759.067 Q1344.68 759.067 1346.48 755.525 Q1348.31 751.96 1348.31 744.854 Q1348.31 737.724 1346.48 734.183 Q1344.68 730.618 1341.04 730.618 M1341.04 726.914 Q1346.85 726.914 1349.91 731.521 Q1352.99 736.104 1352.99 744.854 Q1352.99 753.581 1349.91 758.187 Q1346.85 762.77 1341.04 762.77 Q1335.23 762.77 1332.15 758.187 Q1329.1 753.581 1329.1 744.854 Q1329.1 736.104 1332.15 731.521 Q1335.23 726.914 1341.04 726.914 Z" fill="#000000" fill-rule="nonzero" fill-opacity="1" /><path clip-path="url(#clip470)" d="M1361.2 756.22 L1366.09 756.22 L1366.09 762.099 L1361.2 762.099 L1361.2 756.22 Z" fill="#000000" fill-rule="nonzero" fill-opacity="1" /><path clip-path="url(#clip470)" d="M1389.12 731.613 L1377.32 750.062 L1389.12 750.062 L1389.12 731.613 M1387.89 727.539 L1393.77 727.539 L1393.77 750.062 L1398.7 750.062 L1398.7 753.951 L1393.77 753.951 L1393.77 762.099 L1389.12 762.099 L1389.12 753.951 L1373.52 753.951 L1373.52 749.437 L1387.89 727.539 Z" fill="#000000" fill-rule="nonzero" fill-opacity="1" /><path clip-path="url(#clip470)" d="M1341.37 380.17 Q1337.76 380.17 1335.93 383.734 Q1334.12 387.276 1334.12 394.406 Q1334.12 401.512 1335.93 405.077 Q1337.76 408.618 1341.37 408.618 Q1345 408.618 1346.81 405.077 Q1348.63 401.512 1348.63 394.406 Q1348.63 387.276 1346.81 383.734 Q1345 380.17 1341.37 380.17 M1341.37 376.466 Q1347.18 376.466 1350.23 381.072 Q1353.31 385.656 1353.31 394.406 Q1353.31 403.132 1350.23 407.739 Q1347.18 412.322 1341.37 412.322 Q1335.56 412.322 1332.48 407.739 Q1329.42 403.132 1329.42 394.406 Q1329.42 385.656 1332.48 381.072 Q1335.56 376.466 1341.37 376.466 Z" fill="#000000" fill-rule="nonzero" fill-opacity="1" /><path clip-path="url(#clip470)" d="M1361.53 405.771 L1366.41 405.771 L1366.41 411.651 L1361.53 411.651 L1361.53 405.771 Z" fill="#000000" fill-rule="nonzero" fill-opacity="1" /><path clip-path="url(#clip470)" d="M1387.18 392.507 Q1384.03 392.507 1382.18 394.66 Q1380.35 396.813 1380.35 400.563 Q1380.35 404.29 1382.18 406.466 Q1384.03 408.618 1387.18 408.618 Q1390.32 408.618 1392.15 406.466 Q1394.01 404.29 1394.01 400.563 Q1394.01 396.813 1392.15 394.66 Q1390.32 392.507 1387.18 392.507 M1396.46 377.855 L1396.46 382.114 Q1394.7 381.281 1392.89 380.841 Q1391.11 380.401 1389.35 380.401 Q1384.72 380.401 1382.27 383.526 Q1379.84 386.651 1379.49 392.97 Q1380.86 390.957 1382.92 389.892 Q1384.98 388.804 1387.45 388.804 Q1392.66 388.804 1395.67 391.975 Q1398.7 395.123 1398.7 400.563 Q1398.7 405.887 1395.56 409.105 Q1392.41 412.322 1387.18 412.322 Q1381.18 412.322 1378.01 407.739 Q1374.84 403.132 1374.84 394.406 Q1374.84 386.211 1378.73 381.35 Q1382.62 376.466 1389.17 376.466 Q1390.93 376.466 1392.71 376.813 Q1394.51 377.16 1396.46 377.855 Z" fill="#000000" fill-rule="nonzero" fill-opacity="1" /><path clip-path="url(#clip470)" d="M1233.07 1009.6 L1243.19 1009.6 L1243.19 997.539 L1247.75 997.539 L1247.75 1009.6 L1267.1 1009.6 Q1271.46 1009.6 1272.7 1008.42 Q1273.94 1007.22 1273.94 1003.55 L1273.94 997.539 L1278.84 997.539 L1278.84 1003.55 Q1278.84 1010.33 1276.33 1012.91 Q1273.78 1015.49 1267.1 1015.49 L1247.75 1015.49 L1247.75 1019.79 L1243.19 1019.79 L1243.19 1015.49 L1233.07 1015.49 L1233.07 1009.6 Z" fill="#000000" fill-rule="nonzero" fill-opacity="1" /><path clip-path="url(#clip470)" d="M1248.67 969.18 Q1248.1 970.167 1247.84 971.344 Q1247.55 972.49 1247.55 973.891 Q1247.55 978.856 1250.8 981.529 Q1254.02 984.171 1260.06 984.171 L1278.84 984.171 L1278.84 990.059 L1243.19 990.059 L1243.19 984.171 L1248.73 984.171 Q1245.49 982.325 1243.93 979.365 Q1242.33 976.405 1242.33 972.172 Q1242.33 971.567 1242.43 970.835 Q1242.49 970.103 1242.65 969.212 L1248.67 969.18 Z" fill="#000000" fill-rule="nonzero" fill-opacity="1" /><path clip-path="url(#clip470)" d="M1260.92 946.836 Q1260.92 953.934 1262.55 956.671 Q1264.17 959.409 1268.08 959.409 Q1271.2 959.409 1273.05 957.372 Q1274.86 955.303 1274.86 951.77 Q1274.86 946.9 1271.43 943.972 Q1267.96 941.012 1262.23 941.012 L1260.92 941.012 L1260.92 946.836 M1258.5 935.155 L1278.84 935.155 L1278.84 941.012 L1273.43 941.012 Q1276.68 943.017 1278.24 946.009 Q1279.77 949.001 1279.77 953.329 Q1279.77 958.804 1276.71 962.05 Q1273.62 965.265 1268.47 965.265 Q1262.45 965.265 1259.39 961.255 Q1256.34 957.212 1256.34 949.223 L1256.34 941.012 L1255.77 941.012 Q1251.72 941.012 1249.53 943.685 Q1247.3 946.327 1247.3 951.133 Q1247.3 954.189 1248.03 957.085 Q1248.76 959.982 1250.23 962.655 L1244.82 962.655 Q1243.58 959.44 1242.97 956.417 Q1242.33 953.393 1242.33 950.528 Q1242.33 942.794 1246.35 938.975 Q1250.36 935.155 1258.5 935.155 Z" fill="#000000" fill-rule="nonzero" fill-opacity="1" /><path clip-path="url(#clip470)" d="M1257.33 893.46 L1278.84 893.46 L1278.84 899.316 L1257.52 899.316 Q1252.46 899.316 1249.94 901.29 Q1247.43 903.263 1247.43 907.21 Q1247.43 911.952 1250.45 914.69 Q1253.47 917.427 1258.69 917.427 L1278.84 917.427 L1278.84 923.315 L1243.19 923.315 L1243.19 917.427 L1248.73 917.427 Q1245.52 915.326 1243.93 912.493 Q1242.33 909.629 1242.33 905.905 Q1242.33 899.762 1246.15 896.611 Q1249.94 893.46 1257.33 893.46 Z" fill="#000000" fill-rule="nonzero" fill-opacity="1" /><path clip-path="url(#clip470)" d="M1244.24 859.053 L1249.78 859.053 Q1248.51 861.536 1247.87 864.209 Q1247.24 866.883 1247.24 869.748 Q1247.24 874.108 1248.57 876.304 Q1249.91 878.469 1252.58 878.469 Q1254.62 878.469 1255.8 876.909 Q1256.94 875.349 1257.99 870.639 L1258.44 868.634 Q1259.78 862.395 1262.23 859.785 Q1264.65 857.144 1269.01 857.144 Q1273.97 857.144 1276.87 861.09 Q1279.77 865.005 1279.77 871.88 Q1279.77 874.745 1279.19 877.864 Q1278.65 880.951 1277.54 884.389 L1271.49 884.389 Q1273.18 881.142 1274.04 877.991 Q1274.86 874.84 1274.86 871.753 Q1274.86 867.615 1273.46 865.387 Q1272.03 863.159 1269.45 863.159 Q1267.07 863.159 1265.79 864.782 Q1264.52 866.374 1263.34 871.816 L1262.86 873.854 Q1261.72 879.296 1259.36 881.715 Q1256.98 884.134 1252.84 884.134 Q1247.81 884.134 1245.07 880.569 Q1242.33 877.005 1242.33 870.448 Q1242.33 867.201 1242.81 864.337 Q1243.29 861.472 1244.24 859.053 Z" fill="#000000" fill-rule="nonzero" fill-opacity="1" /><path clip-path="url(#clip470)" d="M1229.32 847.818 L1229.32 841.961 L1278.84 841.961 L1278.84 847.818 L1229.32 847.818 Z" fill="#000000" fill-rule="nonzero" fill-opacity="1" /><path clip-path="url(#clip470)" d="M1259.55 778.495 L1262.42 778.495 L1262.42 805.422 Q1268.47 805.04 1271.65 801.794 Q1274.8 798.515 1274.8 792.691 Q1274.8 789.317 1273.97 786.166 Q1273.14 782.983 1271.49 779.864 L1277.03 779.864 Q1278.36 783.015 1279.06 786.325 Q1279.77 789.635 1279.77 793.041 Q1279.77 801.571 1274.8 806.568 Q1269.83 811.533 1261.37 811.533 Q1252.62 811.533 1247.49 806.823 Q1242.33 802.08 1242.33 794.059 Q1242.33 786.866 1246.98 782.697 Q1251.6 778.495 1259.55 778.495 M1257.84 784.352 Q1253.03 784.415 1250.16 787.057 Q1247.3 789.667 1247.3 793.996 Q1247.3 798.897 1250.07 801.857 Q1252.84 804.786 1257.87 805.231 L1257.84 784.352 Z" fill="#000000" fill-rule="nonzero" fill-opacity="1" /><path clip-path="url(#clip470)" d="M1248.67 748.226 Q1248.1 749.213 1247.84 750.391 Q1247.55 751.536 1247.55 752.937 Q1247.55 757.902 1250.8 760.576 Q1254.02 763.218 1260.06 763.218 L1278.84 763.218 L1278.84 769.106 L1243.19 769.106 L1243.19 763.218 L1248.73 763.218 Q1245.49 761.371 1243.93 758.411 Q1242.33 755.451 1242.33 751.218 Q1242.33 750.613 1242.43 749.881 Q1242.49 749.149 1242.65 748.258 L1248.67 748.226 Z" fill="#000000" fill-rule="nonzero" fill-opacity="1" /><path clip-path="url(#clip470)" d="M1248.67 722.572 Q1248.1 723.559 1247.84 724.737 Q1247.55 725.883 1247.55 727.283 Q1247.55 732.248 1250.8 734.922 Q1254.02 737.564 1260.06 737.564 L1278.84 737.564 L1278.84 743.452 L1243.19 743.452 L1243.19 737.564 L1248.73 737.564 Q1245.49 735.718 1243.93 732.758 Q1242.33 729.798 1242.33 725.564 Q1242.33 724.96 1242.43 724.228 Q1242.49 723.496 1242.65 722.604 L1248.67 722.572 Z" fill="#000000" fill-rule="nonzero" fill-opacity="1" /><path clip-path="url(#clip470)" d="M1247.3 704.048 Q1247.3 708.759 1250.99 711.496 Q1254.65 714.233 1261.05 714.233 Q1267.45 714.233 1271.14 711.528 Q1274.8 708.791 1274.8 704.048 Q1274.8 699.369 1271.11 696.632 Q1267.42 693.895 1261.05 693.895 Q1254.72 693.895 1251.02 696.632 Q1247.3 699.369 1247.3 704.048 M1242.33 704.048 Q1242.33 696.409 1247.3 692.049 Q1252.27 687.688 1261.05 687.688 Q1269.8 687.688 1274.8 692.049 Q1279.77 696.409 1279.77 704.048 Q1279.77 711.719 1274.8 716.079 Q1269.8 720.408 1261.05 720.408 Q1252.27 720.408 1247.3 716.079 Q1242.33 711.719 1242.33 704.048 Z" fill="#000000" fill-rule="nonzero" fill-opacity="1" /><path clip-path="url(#clip470)" d="M1248.67 657.324 Q1248.1 658.311 1247.84 659.488 Q1247.55 660.634 1247.55 662.035 Q1247.55 667 1250.8 669.673 Q1254.02 672.315 1260.06 672.315 L1278.84 672.315 L1278.84 678.204 L1243.19 678.204 L1243.19 672.315 L1248.73 672.315 Q1245.49 670.469 1243.93 667.509 Q1242.33 664.549 1242.33 660.316 Q1242.33 659.711 1242.43 658.979 Q1242.49 658.247 1242.65 657.356 L1248.67 657.324 Z" fill="#000000" fill-rule="nonzero" fill-opacity="1" /><path clip-path="url(#clip470)" d="M1231.32 640.773 L1231.32 635.362 L1284.89 651.913 L1284.89 657.324 L1231.32 640.773 Z" fill="#000000" fill-rule="nonzero" fill-opacity="1" /><path clip-path="url(#clip470)" d="M1250.04 601.465 Q1246.09 599.269 1244.21 596.213 Q1242.33 593.158 1242.33 589.02 Q1242.33 583.45 1246.25 580.426 Q1250.13 577.403 1257.33 577.403 L1278.84 577.403 L1278.84 583.291 L1257.52 583.291 Q1252.39 583.291 1249.91 585.105 Q1247.43 586.919 1247.43 590.643 Q1247.43 595.195 1250.45 597.836 Q1253.47 600.478 1258.69 600.478 L1278.84 600.478 L1278.84 606.367 L1257.52 606.367 Q1252.36 606.367 1249.91 608.181 Q1247.43 609.995 1247.43 613.783 Q1247.43 618.27 1250.48 620.912 Q1253.51 623.554 1258.69 623.554 L1278.84 623.554 L1278.84 629.442 L1243.19 629.442 L1243.19 623.554 L1248.73 623.554 Q1245.45 621.549 1243.89 618.748 Q1242.33 615.947 1242.33 612.096 Q1242.33 608.213 1244.31 605.507 Q1246.28 602.77 1250.04 601.465 Z" fill="#000000" fill-rule="nonzero" fill-opacity="1" /><path clip-path="url(#clip470)" d="M1250.04 537.967 Q1246.09 535.771 1244.21 532.715 Q1242.33 529.66 1242.33 525.522 Q1242.33 519.952 1246.25 516.928 Q1250.13 513.905 1257.33 513.905 L1278.84 513.905 L1278.84 519.793 L1257.52 519.793 Q1252.39 519.793 1249.91 521.607 Q1247.43 523.421 1247.43 527.145 Q1247.43 531.697 1250.45 534.339 Q1253.47 536.98 1258.69 536.98 L1278.84 536.98 L1278.84 542.869 L1257.52 542.869 Q1252.36 542.869 1249.91 544.683 Q1247.43 546.497 1247.43 550.285 Q1247.43 554.772 1250.48 557.414 Q1253.51 560.056 1258.69 560.056 L1278.84 560.056 L1278.84 565.944 L1243.19 565.944 L1243.19 560.056 L1248.73 560.056 Q1245.45 558.051 1243.89 555.25 Q1242.33 552.449 1242.33 548.598 Q1242.33 544.715 1244.31 542.009 Q1246.28 539.272 1250.04 537.967 Z" fill="#000000" fill-rule="nonzero" fill-opacity="1" /><path clip-path="url(#clip473)" d="M1482.61 674.309 L1482.61 1445.72 L1528.29 1445.72 L1528.29 674.309 L1482.61 674.309 L1482.61 674.309  Z" fill="#009af9" fill-rule="evenodd" fill-opacity="1"/>
<polyline clip-path="url(#clip473)" style="stroke:#000000; stroke-linecap:round; stroke-linejoin:round; stroke-width:4; stroke-opacity:1; fill:none" points="1482.61,674.309 1482.61,1445.72 1528.29,1445.72 1528.29,674.309 1482.61,674.309 "/>
<path clip-path="url(#clip473)" d="M1653.91 683.607 L1653.91 1445.72 L1699.59 1445.72 L1699.59 683.607 L1653.91 683.607 L1653.91 683.607  Z" fill="#009af9" fill-rule="evenodd" fill-opacity="1"/>
<polyline clip-path="url(#clip473)" style="stroke:#000000; stroke-linecap:round; stroke-linejoin:round; stroke-width:4; stroke-opacity:1; fill:none" points="1653.91,683.607 1653.91,1445.72 1699.59,1445.72 1699.59,683.607 1653.91,683.607 "/>
<path clip-path="url(#clip473)" d="M1825.21 674.309 L1825.21 1445.72 L1870.89 1445.72 L1870.89 674.309 L1825.21 674.309 L1825.21 674.309  Z" fill="#009af9" fill-rule="evenodd" fill-opacity="1"/>
<polyline clip-path="url(#clip473)" style="stroke:#000000; stroke-linecap:round; stroke-linejoin:round; stroke-width:4; stroke-opacity:1; fill:none" points="1825.21,674.309 1825.21,1445.72 1870.89,1445.72 1870.89,674.309 1825.21,674.309 "/>
<path clip-path="url(#clip473)" d="M1996.51 294.765 L1996.51 1445.72 L2042.19 1445.72 L2042.19 294.765 L1996.51 294.765 L1996.51 294.765  Z" fill="#009af9" fill-rule="evenodd" fill-opacity="1"/>
<polyline clip-path="url(#clip473)" style="stroke:#000000; stroke-linecap:round; stroke-linejoin:round; stroke-width:4; stroke-opacity:1; fill:none" points="1996.51,294.765 1996.51,1445.72 2042.19,1445.72 2042.19,294.765 1996.51,294.765 "/>
<path clip-path="url(#clip473)" d="M2167.81 832.86 L2167.81 1445.72 L2213.49 1445.72 L2213.49 832.86 L2167.81 832.86 L2167.81 832.86  Z" fill="#009af9" fill-rule="evenodd" fill-opacity="1"/>
<polyline clip-path="url(#clip473)" style="stroke:#000000; stroke-linecap:round; stroke-linejoin:round; stroke-width:4; stroke-opacity:1; fill:none" points="2167.81,832.86 2167.81,1445.72 2213.49,1445.72 2213.49,832.86 2167.81,832.86 "/>
<circle clip-path="url(#clip473)" style="fill:#009af9; stroke:none; fill-opacity:0" cx="1505.45" cy="674.309" r="2"/>
<circle clip-path="url(#clip473)" style="fill:#009af9; stroke:none; fill-opacity:0" cx="1676.75" cy="683.607" r="2"/>
<circle clip-path="url(#clip473)" style="fill:#009af9; stroke:none; fill-opacity:0" cx="1848.05" cy="674.309" r="2"/>
<circle clip-path="url(#clip473)" style="fill:#009af9; stroke:none; fill-opacity:0" cx="2019.35" cy="294.765" r="2"/>
<circle clip-path="url(#clip473)" style="fill:#009af9; stroke:none; fill-opacity:0" cx="2190.65" cy="832.86" r="2"/>
<path clip-path="url(#clip473)" d="M1528.29 950.392 L1528.29 1445.72 L1573.97 1445.72 L1573.97 950.392 L1528.29 950.392 L1528.29 950.392  Z" fill="#e26f46" fill-rule="evenodd" fill-opacity="1"/>
<polyline clip-path="url(#clip473)" style="stroke:#000000; stroke-linecap:round; stroke-linejoin:round; stroke-width:4; stroke-opacity:1; fill:none" points="1528.29,950.392 1528.29,1445.72 1573.97,1445.72 1573.97,950.392 1528.29,950.392 "/>
<path clip-path="url(#clip473)" d="M1699.59 950.392 L1699.59 1445.72 L1745.27 1445.72 L1745.27 950.392 L1699.59 950.392 L1699.59 950.392  Z" fill="#e26f46" fill-rule="evenodd" fill-opacity="1"/>
<polyline clip-path="url(#clip473)" style="stroke:#000000; stroke-linecap:round; stroke-linejoin:round; stroke-width:4; stroke-opacity:1; fill:none" points="1699.59,950.392 1699.59,1445.72 1745.27,1445.72 1745.27,950.392 1699.59,950.392 "/>
<path clip-path="url(#clip473)" d="M1870.89 950.392 L1870.89 1445.72 L1916.57 1445.72 L1916.57 950.392 L1870.89 950.392 L1870.89 950.392  Z" fill="#e26f46" fill-rule="evenodd" fill-opacity="1"/>
<polyline clip-path="url(#clip473)" style="stroke:#000000; stroke-linecap:round; stroke-linejoin:round; stroke-width:4; stroke-opacity:1; fill:none" points="1870.89,950.392 1870.89,1445.72 1916.57,1445.72 1916.57,950.392 1870.89,950.392 "/>
<path clip-path="url(#clip473)" d="M2042.19 87.9763 L2042.19 1445.72 L2087.87 1445.72 L2087.87 87.9763 L2042.19 87.9763 L2042.19 87.9763  Z" fill="#e26f46" fill-rule="evenodd" fill-opacity="1"/>
<polyline clip-path="url(#clip473)" style="stroke:#000000; stroke-linecap:round; stroke-linejoin:round; stroke-width:4; stroke-opacity:1; fill:none" points="2042.19,87.9763 2042.19,1445.72 2087.87,1445.72 2087.87,87.9763 2042.19,87.9763 "/>
<path clip-path="url(#clip473)" d="M2213.49 950.392 L2213.49 1445.72 L2259.17 1445.72 L2259.17 950.392 L2213.49 950.392 L2213.49 950.392  Z" fill="#e26f46" fill-rule="evenodd" fill-opacity="1"/>
<polyline clip-path="url(#clip473)" style="stroke:#000000; stroke-linecap:round; stroke-linejoin:round; stroke-width:4; stroke-opacity:1; fill:none" points="2213.49,950.392 2213.49,1445.72 2259.17,1445.72 2259.17,950.392 2213.49,950.392 "/>
<circle clip-path="url(#clip473)" style="fill:#e26f46; stroke:none; fill-opacity:0" cx="1551.13" cy="950.392" r="2"/>
<circle clip-path="url(#clip473)" style="fill:#e26f46; stroke:none; fill-opacity:0" cx="1722.43" cy="950.392" r="2"/>
<circle clip-path="url(#clip473)" style="fill:#e26f46; stroke:none; fill-opacity:0" cx="1893.73" cy="950.392" r="2"/>
<circle clip-path="url(#clip473)" style="fill:#e26f46; stroke:none; fill-opacity:0" cx="2065.03" cy="87.9763" r="2"/>
<circle clip-path="url(#clip473)" style="fill:#e26f46; stroke:none; fill-opacity:0" cx="2236.33" cy="950.392" r="2"/>
<path clip-path="url(#clip473)" d="M1573.97 1326.21 L1573.97 1445.72 L1619.65 1445.72 L1619.65 1326.21 L1573.97 1326.21 L1573.97 1326.21  Z" fill="#3da44d" fill-rule="evenodd" fill-opacity="1"/>
<polyline clip-path="url(#clip473)" style="stroke:#000000; stroke-linecap:round; stroke-linejoin:round; stroke-width:4; stroke-opacity:1; fill:none" points="1573.97,1326.21 1573.97,1445.72 1619.65,1445.72 1619.65,1326.21 1573.97,1326.21 "/>
<path clip-path="url(#clip473)" d="M1745.27 1316.56 L1745.27 1445.72 L1790.95 1445.72 L1790.95 1316.56 L1745.27 1316.56 L1745.27 1316.56  Z" fill="#3da44d" fill-rule="evenodd" fill-opacity="1"/>
<polyline clip-path="url(#clip473)" style="stroke:#000000; stroke-linecap:round; stroke-linejoin:round; stroke-width:4; stroke-opacity:1; fill:none" points="1745.27,1316.56 1745.27,1445.72 1790.95,1445.72 1790.95,1316.56 1745.27,1316.56 "/>
<path clip-path="url(#clip473)" d="M1916.57 1326.21 L1916.57 1445.72 L1962.25 1445.72 L1962.25 1326.21 L1916.57 1326.21 L1916.57 1326.21  Z" fill="#3da44d" fill-rule="evenodd" fill-opacity="1"/>
<polyline clip-path="url(#clip473)" style="stroke:#000000; stroke-linecap:round; stroke-linejoin:round; stroke-width:4; stroke-opacity:1; fill:none" points="1916.57,1326.21 1916.57,1445.72 1962.25,1445.72 1962.25,1326.21 1916.57,1326.21 "/>
<path clip-path="url(#clip473)" d="M2087.87 739.357 L2087.87 1445.72 L2133.55 1445.72 L2133.55 739.357 L2087.87 739.357 L2087.87 739.357  Z" fill="#3da44d" fill-rule="evenodd" fill-opacity="1"/>
<polyline clip-path="url(#clip473)" style="stroke:#000000; stroke-linecap:round; stroke-linejoin:round; stroke-width:4; stroke-opacity:1; fill:none" points="2087.87,739.357 2087.87,1445.72 2133.55,1445.72 2133.55,739.357 2087.87,739.357 "/>
<path clip-path="url(#clip473)" d="M2259.17 1378.59 L2259.17 1445.72 L2304.85 1445.72 L2304.85 1378.59 L2259.17 1378.59 L2259.17 1378.59  Z" fill="#3da44d" fill-rule="evenodd" fill-opacity="1"/>
<polyline clip-path="url(#clip473)" style="stroke:#000000; stroke-linecap:round; stroke-linejoin:round; stroke-width:4; stroke-opacity:1; fill:none" points="2259.17,1378.59 2259.17,1445.72 2304.85,1445.72 2304.85,1378.59 2259.17,1378.59 "/>
<circle clip-path="url(#clip473)" style="fill:#3da44d; stroke:none; fill-opacity:0" cx="1596.81" cy="1326.21" r="2"/>
<circle clip-path="url(#clip473)" style="fill:#3da44d; stroke:none; fill-opacity:0" cx="1768.11" cy="1316.56" r="2"/>
<circle clip-path="url(#clip473)" style="fill:#3da44d; stroke:none; fill-opacity:0" cx="1939.41" cy="1326.21" r="2"/>
<circle clip-path="url(#clip473)" style="fill:#3da44d; stroke:none; fill-opacity:0" cx="2110.71" cy="739.357" r="2"/>
<circle clip-path="url(#clip473)" style="fill:#3da44d; stroke:none; fill-opacity:0" cx="2282.01" cy="1378.59" r="2"/>
<path clip-path="url(#clip470)" d="M2186.39 302.578 L2322.15 302.578 L2322.15 95.2176 L2186.39 95.2176  Z" fill="#ffffff" fill-rule="evenodd" fill-opacity="1"/>
<polyline clip-path="url(#clip470)" style="stroke:#000000; stroke-linecap:round; stroke-linejoin:round; stroke-width:4; stroke-opacity:1; fill:none" points="2186.39,302.578 2322.15,302.578 2322.15,95.2176 2186.39,95.2176 2186.39,302.578 "/>
<path clip-path="url(#clip470)" d="M2196.59 167.794 L2257.79 167.794 L2257.79 126.322 L2196.59 126.322 L2196.59 167.794  Z" fill="#009af9" fill-rule="evenodd" fill-opacity="1"/>
<polyline clip-path="url(#clip470)" style="stroke:#000000; stroke-linecap:round; stroke-linejoin:round; stroke-width:4; stroke-opacity:1; fill:none" points="2196.59,167.794 2257.79,167.794 2257.79,126.322 2196.59,126.322 2196.59,167.794 "/>
<path clip-path="url(#clip470)" d="M2275.4 131.051 L2275.4 138.412 L2284.18 138.412 L2284.18 141.722 L2275.4 141.722 L2275.4 155.796 Q2275.4 158.967 2276.26 159.87 Q2277.14 160.773 2279.8 160.773 L2284.18 160.773 L2284.18 164.338 L2279.8 164.338 Q2274.87 164.338 2273 162.509 Q2271.12 160.657 2271.12 155.796 L2271.12 141.722 L2268 141.722 L2268 138.412 L2271.12 138.412 L2271.12 131.051 L2275.4 131.051 Z" fill="#000000" fill-rule="nonzero" fill-opacity="1" /><path clip-path="url(#clip470)" d="M2311.33 138.412 L2301.95 151.027 L2311.81 164.338 L2306.79 164.338 L2299.25 154.152 L2291.7 164.338 L2286.68 164.338 L2296.75 150.773 L2287.53 138.412 L2292.56 138.412 L2299.43 147.648 L2306.31 138.412 L2311.33 138.412 Z" fill="#000000" fill-rule="nonzero" fill-opacity="1" /><path clip-path="url(#clip470)" d="M2196.59 219.634 L2257.79 219.634 L2257.79 178.162 L2196.59 178.162 L2196.59 219.634  Z" fill="#e26f46" fill-rule="evenodd" fill-opacity="1"/>
<polyline clip-path="url(#clip470)" style="stroke:#000000; stroke-linecap:round; stroke-linejoin:round; stroke-width:4; stroke-opacity:1; fill:none" points="2196.59,219.634 2257.79,219.634 2257.79,178.162 2196.59,178.162 2196.59,219.634 "/>
<path clip-path="url(#clip470)" d="M2275.4 182.891 L2275.4 190.252 L2284.18 190.252 L2284.18 193.562 L2275.4 193.562 L2275.4 207.636 Q2275.4 210.807 2276.26 211.71 Q2277.14 212.613 2279.8 212.613 L2284.18 212.613 L2284.18 216.178 L2279.8 216.178 Q2274.87 216.178 2273 214.349 Q2271.12 212.497 2271.12 207.636 L2271.12 193.562 L2268 193.562 L2268 190.252 L2271.12 190.252 L2271.12 182.891 L2275.4 182.891 Z" fill="#000000" fill-rule="nonzero" fill-opacity="1" /><path clip-path="url(#clip470)" d="M2300.56 218.585 Q2298.76 223.215 2297.05 224.627 Q2295.33 226.039 2292.46 226.039 L2289.06 226.039 L2289.06 222.474 L2291.56 222.474 Q2293.32 222.474 2294.29 221.64 Q2295.26 220.807 2296.44 217.705 L2297.21 215.761 L2286.72 190.252 L2291.24 190.252 L2299.34 210.529 L2307.44 190.252 L2311.95 190.252 L2300.56 218.585 Z" fill="#000000" fill-rule="nonzero" fill-opacity="1" /><path clip-path="url(#clip470)" d="M2196.59 271.474 L2257.79 271.474 L2257.79 230.002 L2196.59 230.002 L2196.59 271.474  Z" fill="#3da44d" fill-rule="evenodd" fill-opacity="1"/>
<polyline clip-path="url(#clip470)" style="stroke:#000000; stroke-linecap:round; stroke-linejoin:round; stroke-width:4; stroke-opacity:1; fill:none" points="2196.59,271.474 2257.79,271.474 2257.79,230.002 2196.59,230.002 2196.59,271.474 "/>
<path clip-path="url(#clip470)" d="M2275.4 234.731 L2275.4 242.092 L2284.18 242.092 L2284.18 245.402 L2275.4 245.402 L2275.4 259.476 Q2275.4 262.647 2276.26 263.55 Q2277.14 264.453 2279.8 264.453 L2284.18 264.453 L2284.18 268.018 L2279.8 268.018 Q2274.87 268.018 2273 266.189 Q2271.12 264.337 2271.12 259.476 L2271.12 245.402 L2268 245.402 L2268 242.092 L2271.12 242.092 L2271.12 234.731 L2275.4 234.731 Z" fill="#000000" fill-rule="nonzero" fill-opacity="1" /><path clip-path="url(#clip470)" d="M2287.93 242.092 L2308.16 242.092 L2308.16 245.981 L2292.14 264.615 L2308.16 264.615 L2308.16 268.018 L2287.35 268.018 L2287.35 264.129 L2303.37 245.495 L2287.93 245.495 L2287.93 242.092 Z" fill="#000000" fill-rule="nonzero" fill-opacity="1" /></svg>
